<?xml version="1.0" encoding="UTF-8" standalone="no"?>
<svg
   xmlns:dc="http://purl.org/dc/elements/1.1/"
   xmlns:cc="http://creativecommons.org/ns#"
   xmlns:rdf="http://www.w3.org/1999/02/22-rdf-syntax-ns#"
   xmlns:svg="http://www.w3.org/2000/svg"
   xmlns="http://www.w3.org/2000/svg"
   xmlns:xlink="http://www.w3.org/1999/xlink"
   xmlns:sodipodi="http://sodipodi.sourceforge.net/DTD/sodipodi-0.dtd"
   xmlns:inkscape="http://www.inkscape.org/namespaces/inkscape"
   version="1.1"
   id="Layer_1"
   viewBox="0 0 1024 768"
   xml:space="preserve"
   inkscape:version="0.91 r13725"
   sodipodi:docname="simple_svgfile.svg"><metadata
     id="metadata18"><rdf:RDF><cc:Work
         rdf:about=""><dc:format>image/svg+xml</dc:format><dc:type
           rdf:resource="http://purl.org/dc/dcmitype/StillImage" /><dc:title></dc:title></cc:Work></rdf:RDF></metadata><defs
     id="defs16" /><sodipodi:namedview
     pagecolor="#ffffff"
     bordercolor="#666666"
     borderopacity="1"
     objecttolerance="10"
     gridtolerance="10"
     guidetolerance="10"
     inkscape:pageopacity="0"
     inkscape:pageshadow="2"
     inkscape:window-width="2177"
     inkscape:window-height="1305"
     id="namedview14"
     showgrid="false"
     inkscape:zoom="1.1501872"
     inkscape:cx="512"
     inkscape:cy="495.13681"
     inkscape:window-x="55"
     inkscape:window-y="14"
     inkscape:window-maximized="0"
     inkscape:current-layer="Layer_1"
     inkscape:snap-smooth-nodes="false" /><g
     id="HAO_0000397"
     class="bodypart"><path
       inkscape:connector-curvature="0"
       id="path4155"
       d="m 317.25706,325.61785 -4.44433,-11.96552 -7.52118,-11.62364 -25.64039,-20.51231 -6.83744,-4.78621 -11.62364,-4.7862 -10.25615,-1.02562 -12.99113,-2.73497 -9.57241,1.02561 -7.52119,3.41872 -8.88866,6.1537 -9.57241,14.35861 -6.49557,12.30739 -1.36749,7.86305 -2.05123,20.17044 0.34187,11.62364 4.44434,17.77734 9.91428,12.99113 7.86305,9.57241 11.28177,6.15369 10.59803,4.44433 20.85418,5.12808 16.40985,1.02562 14.01675,-3.41872 12.64925,-3.76059 15.72611,-5.46995 10.59803,-5.46995 5.46994,-4.78621 0,0 -3.41871,-9.91428 -3.07685,-4.7862 8.20492,-0.68375 2.73498,-5.81182 -2.3931,-5.81182 -5.12808,-4.78621 -5.12808,-3.41871 -3.41872,0 -1.70936,-2.05124 -0.68374,-6.49556 z"
       style="fill:#97cafc;fill-opacity:0.99215686;fill-rule:evenodd;stroke:none;stroke-width:1px;stroke-linecap:butt;stroke-linejoin:miter;stroke-opacity:1" /></g><image
     sodipodi:absref="/Users/jolearra-gigapan/Desktop/Collin/wasp_app/images/FullMontage.jpg"
     xlink:href="images/FullMontage.jpg"
     style="fill:#b097b7;fill-opacity:1"
     width="1024"
     height="768"
     id="image3"
     x="0"
     y="0" /><g
     id="HAO_0001869"
     class="bodypart"><path
       inkscape:connector-curvature="0"
       id="path4291"
       d="m 412.20603,250.31296 c 7.27697,5.02151 17.73173,4.7999 23.7147,12.03901 7.17957,6.50762 13.87474,13.65786 18.52381,22.21684 5.11216,5.3267 6.70178,12.83432 10.64829,18.86907 1.7614,6.40297 1.5367,15.62291 10.61086,15.43109 6.44596,1.43626 13.20155,-0.021 18.47682,-3.97808 6.66299,-2.97306 14.42192,-4.07604 19.86853,-9.38828 2.35092,-3.3025 0.75281,-7.64664 3.86062,-10.63427 -4.48229,-6.48304 -4.01708,-16.29658 -13.17375,-18.22184 -3.16176,-6.95547 -7.87475,-13.02813 -16.52244,-11.51925 -8.74649,-0.0545 -11.67134,-9.13117 -17.4153,-13.78515 -8.21369,-4.43724 -17.88316,-2.03022 -26.78065,-2.63609 -10.11391,0.0339 -20.34615,-0.54472 -30.29305,1.50573 l -1.51844,0.10123 0,-1e-5 z"
       style="fill:#97cafc;fill-opacity:0.99215686;fill-rule:evenodd;stroke:#97cafc;stroke-width:1px;stroke-linecap:butt;stroke-linejoin:miter;stroke-opacity:0.99215686" /></g><g
     id="HAO_0001354"
     class="bodypart"><path
       inkscape:connector-curvature="0"
       id="path3757"
       d="m 466.7042,324.02427 c -0.42433,-4.34956 1.07773,-9.15477 -1.2531,-13.03498 -1.06735,-6.57455 -3.55716,-12.61446 -6.81041,-18.41237 -7.03954,-13.83766 -18.6835,-24.43939 -29.92083,-34.80396 -6.18465,-2.093 -12.51894,-5.73834 -19.05095,-6.37346 -1.12651,4.03869 -7.30262,7.29832 -6.73033,0.62578 -3.37951,-5.59207 -13.15323,-3.5888 -16.70843,-10.24639 -7.31274,-5.59469 -19.83335,1.18046 -21.11318,9.82297 -3.76809,8.41105 8.21045,12.26859 6.99872,19.08396 10.15758,-1.68447 12.74329,10.2856 13.66191,17.81143 4.26607,8.46985 3.29513,17.9999 0.5033,26.77091 -0.72836,7.15012 -7.57701,18.00028 3.09588,21.04612 10.25138,6.55031 23.0256,6.00963 34.72467,6.27938 9.20576,-0.008 19.275,2.59573 25.32053,-6.11674 5.18432,-5.01074 11.47141,-8.28793 17.28222,-12.45265 z"
       style="fill:#97cafc;fill-opacity:0.99215686;fill-rule:evenodd;stroke:#97cafc;stroke-width:1px;stroke-linecap:butt;stroke-linejoin:miter;stroke-opacity:0.99215686" /></g><g
     id="HAO_0000576"
     class="bodypart"><path
       inkscape:connector-curvature="0"
       id="path4662"
       d="m 511.34811,256.91808 c -11.98981,2.97976 -14.97908,13.70644 -0.68731,14.05342 2.0306,12.30269 19.40258,32.3223 -1.12103,36.50005 -14.85852,4.1138 -25.03515,19.39246 -18.08369,34.22427 -5.86711,7.05341 -6.64307,-16.3001 -14.94776,-17.88451 -11.88471,-7.98518 -22.29692,10.94176 -32.77212,15.6252 -6.43798,9.62099 5.98488,29.16062 -11.24205,25.58236 -15.10279,3.68376 -29.31133,-4.56929 -44.41629,-4.46298 -5.11818,-6.4426 1.06746,-23.93583 -7.13754,-31.74597 -9.86716,-6.31512 -29.55474,-6.67363 -32.65426,7.38382 -1.6124,8.88804 4.01376,30.53854 -11.30972,19.43742 -10.30529,-4.18145 -22.12871,-11.87447 -19.29086,-24.79307 0.9229,-14.27403 -10.58279,-25.17269 -17.87053,-36.27977 -5.22701,-13.3991 -32.34337,-13.58849 -20.29134,-31.07551 8.06571,-13.9206 21.72669,-22.77542 36.37577,-28.44991 25.12618,-8.28428 52.13124,-10.87814 78.46876,-8.95514 16.74588,1.47593 31.83623,9.67374 48.4631,12.05573 15.48877,3.91464 30.15613,11.42907 45.90176,13.73619 8.0378,-0.74052 14.82493,3.94562 22.61511,5.0484 z"
       style="fill:#97cafc;fill-opacity:0.99215686;fill-rule:evenodd;stroke:#97cafc;stroke-width:1px;stroke-linecap:butt;stroke-linejoin:miter;stroke-opacity:0.99215686" /></g><g
     id="HAO_0000626"
     class="bodypart"><path
       inkscape:connector-curvature="0"
       id="path4300"
       d="m 511.30298,257.78105 c -6.67967,1.74662 -4.49974,5.00188 -4.68813,10.3575 -0.85613,3.88695 -2.19605,9.16396 2.52007,10.96185 5.10178,1.78422 7.6462,3.45313 7.74473,9.07349 3.26492,3.72494 5.40337,8.68251 3.66829,13.7186 1.08623,3.77106 7.63686,4.43019 10.32582,7.78516 14.4047,10.35167 32.81098,12.7571 48.61613,20.21993 11.89823,5.31135 24.59879,9.18158 37.0386,12.97679 36.31274,3.64956 72.31347,11.79588 108.99527,10.23741 23.60764,0.36064 46.63273,-6.07263 69.96214,-8.95731 13.55079,-3.86486 28.36268,-5.79051 40.57578,-12.95266 8.11153,-10.13558 21.81134,-13.94957 29.90129,-22.83248 1.83669,-11.42281 -15.88575,-16.35101 -23.35191,-23.0809 -14.17786,-7.0397 -25.64815,-19.08894 -41.10298,-23.47048 -18.19595,-6.84068 -36.14443,-15.50853 -55.79287,-16.94099 -17.66296,-2.78011 -34.64002,-9.53441 -52.69043,-9.20517 -21.17955,-1.98902 -42.58245,-3.5181 -63.7427,-0.51996 -23.71704,3.138 -48.35189,-0.1096 -71.27015,7.89401 -15.83016,3.99052 -31.69204,8.24314 -46.70895,14.73521 z"
       style="fill:#97cafc;fill-opacity:0.99215686;fill-rule:evenodd;stroke:#97cafc;stroke-width:1px;stroke-linecap:butt;stroke-linejoin:miter;stroke-opacity:0.99215686" /></g><g
     id="HAO_0000212"
     class="bodypart"><path
       sodipodi:nodetypes="ccccccccccccc"
       inkscape:connector-curvature="0"
       id="path3440"
       d="m 298.03022,390.83827 -0.47669,-4.57628 c 1.03981,-1.81155 0.85775,-4.1571 2.27766,-5.77444 0.71802,-0.86964 1.91896,-1.68838 2.80619,-2.30164 1.26855,-0.71936 2.41621,-1.0602 3.91725,-1.24279 0.68293,-0.0955 1.33958,0.27615 1.20635,1.03629 0.23502,2.11393 -0.03,4.24528 0.16488,6.36139 -0.43531,1.40356 0.4487,2.71585 1.0423,3.92132 0.37787,0.74993 0.68385,1.67119 0.28512,2.47685 -2.29238,1.88663 -5.31522,2.36261 -8.14504,2.89917 -0.91122,0.17475 -1.82154,0.36019 -2.71535,0.61111 -0.52454,-0.68581 0.21456,-0.18305 0.0186,-0.93216 z"
       style="fill:#96c9fb;fill-opacity:1;fill-rule:evenodd;stroke:#96c9fb;stroke-width:1px;stroke-linecap:butt;stroke-linejoin:miter;stroke-opacity:1" /></g><g
     id="HAO_0000889"
     class="bodypart"><path
       sodipodi:nodetypes="cscc"
       inkscape:connector-curvature="0"
       id="path4822"
       d="m 294.57892,378.92334 c 0,0 -14.14869,-3.76289 -11.94675,5.48905 1.24953,5.25019 11.19343,0.21512 11.19336,0.21526 0,0 1.72205,-3.12123 0.75339,-5.70431 z"
       style="fill:#97c9fb;fill-opacity:1;fill-rule:evenodd;stroke:none;stroke-width:1px;stroke-linecap:butt;stroke-linejoin:miter;stroke-opacity:1" /></g><g
     id="HAO_0001523"
     class="bodypart"><path
       style="fill:#96c9fb;fill-opacity:1;fill-rule:evenodd;stroke:none;stroke-width:1px;stroke-linecap:butt;stroke-linejoin:miter;stroke-opacity:1"
       d="m 195.08169,313.34681 c 10.96702,-2.87279 2.79488,10.07292 5.32921,16.0965 0.0684,11.41602 4.6199,25.67743 17.48631,27.89557 14.39529,3.9472 29.80544,-4.03301 36.86264,-16.75989 5.93725,-9.28272 14.5697,6.87781 21.90569,8.48189 8.77243,6.11176 21.69959,10.11316 24.15276,21.87618 -4.29391,7.30173 -1.37236,16.27217 -4.34474,24.16599 -9.11085,4.62687 -19.70697,4.09135 -29.55873,5.84898 -14.26977,0.65565 -29.62632,-0.81259 -41.90977,-8.62762 -8.91036,-8.71515 -20.6624,-16.16699 -25.0536,-28.31669 -4.0011,-14.41111 -6.8491,-29.35303 -5.1076,-44.36578 0.0796,-2.09837 0.15974,-4.19671 0.23783,-6.29513 z"
       id="path3485"
       inkscape:connector-curvature="0" /></g><g
     id="HAO_0000217"
     class="bodypart"><path
       inkscape:connector-curvature="0"
       id="path4473"
       d="m 256.00674,335.67734 c 0,0 -1.99227,-42.83382 -19.25861,-52.79517 -17.26635,-9.96135 -31.87633,18.59453 -31.87633,18.59453 0,0 -9.96135,27.22769 3.32045,51.79902 13.2818,24.57134 49.14267,-16.60225 47.81449,-17.59838 z"
       style="fill:#97c9fb;fill-opacity:1;fill-rule:evenodd;stroke:none;stroke-width:1px;stroke-linecap:butt;stroke-linejoin:miter;stroke-opacity:1" /></g><g
     id="HAO_0000661"
     inkscape:label="#g4150"
     class="bodypart"><path
       inkscape:connector-curvature="0"
       id="path4138"
       d="m 197.44073,310.70982 c 0.38274,0.10093 0.75829,0.2467 1.1458,0.31862 0.30504,-0.0203 0.61008,-0.0407 0.91512,-0.061 0.25847,-0.32828 0.52713,-0.64855 0.77926,-0.98181 0.41252,-1.03119 0.8714,-2.04944 1.16777,-3.12216 0.0477,-0.24792 0.13767,-0.4969 0.17068,-0.74153 -0.12627,-0.25254 -0.25254,-0.50508 -0.37881,-0.75762 -0.32202,-0.15028 -0.64404,-0.30055 -0.96606,-0.45083 -0.40143,0.15742 -0.82799,0.25912 -1.21222,0.45546 -0.32583,0.19167 -0.65167,0.38333 -0.97751,0.575 -0.18743,0.51237 -0.42288,1.01308 -0.57949,1.53305 0.0157,1.0785 -0.0297,2.15535 -0.0646,3.23285 z"
       style="fill:#cce6ff;fill-opacity:0.99215686;fill-rule:evenodd;stroke:none;stroke-width:1px;stroke-linecap:butt;stroke-linejoin:miter;stroke-opacity:1" /></g><g
     id="HAO_0000481"
     class="bodypart"><path
       inkscape:connector-curvature="0"
       id="path4534"
       d="m 202.42383,304.84142 c 0.0378,0.90592 0.25847,1.82752 -0.002,2.71862 -0.15422,0.74907 -0.21602,1.51593 -0.37236,2.26267 -0.33165,0.8205 -1.25982,1.13773 -2.02157,1.42659 -0.73074,0.17559 -1.39108,0.57894 -2.12713,0.71971 -0.66597,0.0692 -0.77646,-0.66481 -0.64733,-1.15599 0.0503,-1.1172 0.20808,-2.23591 0.48342,-3.31955 0.18456,-0.82696 0.86349,-1.3655 1.51501,-1.83321 0.63615,-0.43452 1.39887,-0.63372 2.12928,-0.84836 0.34827,-0.0875 0.69474,-0.002 1.04265,0.0295 z"
       style="fill:#cbe5fd;fill-opacity:1;fill-rule:evenodd;stroke:none;stroke-width:1px;stroke-linecap:butt;stroke-linejoin:miter;stroke-opacity:1" /></g><g
     id="HAO_0000371"
     class="bodypart"><path
       inkscape:connector-curvature="0"
       id="path4182"
       d="m 201.88769,304.62597 c 10.11638,-12.02236 20.23275,-24.04472 30.34913,-36.06708 18.39136,0.1718 37.31242,3.59524 53.43807,12.75419 14.88349,9.94775 23.93839,26.43725 30.02403,42.84508 2.00514,7.93896 2.81568,17.73419 -3.34223,24.14335 -2.88588,6.2198 -8.0794,11.59414 -15.35152,11.58384 -7.83438,-1.41709 -12.95259,-8.88653 -20.63707,-11.13256 -6.84478,-3.74974 -13.50649,-10.08478 -19.40059,-14.38931 -1.10162,-12.18381 -3.53051,-24.24317 -8.00944,-35.64257 -2.79709,-8.6421 -10.13553,-18.20761 -20.17983,-17.33654 -9.1536,0.84366 -13.30298,10.2136 -19.60604,15.60262 -2.42651,2.54791 -4.8552,5.09375 -7.28451,7.63898 z"
       style="fill:#97cafc;fill-opacity:0.99215686;fill-rule:evenodd;stroke:none;stroke-width:1px;stroke-linecap:butt;stroke-linejoin:miter;stroke-opacity:1" /></g><g
     id="HAO_0001077"
     class="bodypart"><path
       inkscape:connector-curvature="0"
       id="path4835"
       d="m 193.96011,328.0632 6.92715,-1.13353 c 0,0 6.92715,-62.34433 40.68124,-39.54771 33.7541,22.79661 36.77686,-8.43853 36.77686,-8.43853 0,0 -33.88005,-15.86946 -53.77985,-8.56447 -19.89981,7.30499 -33.62815,47.1046 -30.6054,57.68424 z"
       style="fill:#97cafc;fill-opacity:0.99215686;fill-rule:evenodd;stroke:none;stroke-width:1px;stroke-linecap:butt;stroke-linejoin:miter;stroke-opacity:1" /></g><g
     id="HAO_0000506"
     class="bodypart"><g
       id="g3608"><path
         style="fill:#96c9fb;fill-opacity:1;fill-rule:evenodd;stroke:#96c9fb;stroke-width:1px;stroke-linecap:butt;stroke-linejoin:miter;stroke-opacity:1"
         d="m 322.29749,371.84267 c 1.26759,-2.06512 4.67361,-4.19309 5.03828,-0.31959 1.1315,3.31118 2.47017,7.29298 0.5906,10.57334 -1.59857,2.29181 -3.34018,4.96858 -6.36985,5.40345 -3.7495,0.46037 -7.49423,1.09287 -11.03383,2.47037 -3.31448,-0.42807 -1.13046,-5.16575 -3.3576,-7.02556 -1.35184,-2.57411 -2.22737,-6.14985 -0.37988,-8.64859 2.65542,-2.63693 4.29218,1.90676 6.94516,2.18128 2.58539,0.11896 4.84556,-1.9564 7.02995,-3.21409 0.56271,-0.41938 1.02833,-0.94276 1.53717,-1.42061 z"
         id="path3601"
         inkscape:connector-curvature="0" /><path
         style="fill:#96c9fb;fill-opacity:1;fill-rule:evenodd;stroke:none;stroke-width:1px;stroke-linecap:butt;stroke-linejoin:miter;stroke-opacity:1"
         d="m 316.22243,328.19822 c -0.13339,8.31697 -0.32661,17.58169 -6.02262,24.2354 -2.95841,2.98223 -6.36201,5.41243 -9.95967,7.57534 -2.45697,2.26161 2.71119,5.8317 4.60133,7.6363 2.52903,2.31566 5.16122,5.25164 4.63096,8.96186 -0.77311,4.00918 1.42865,8.23502 5.64042,4.74767 3.87703,-1.9658 6.79664,-4.38675 6.07886,-9.13515 0.29848,-4.30474 1.96673,-8.58999 0.5753,-12.89073 -1.72635,-7.3234 -1.68774,-14.9077 -3.09882,-22.28717 -0.0878,-3.09084 -1.63975,-5.8972 -2.44576,-8.84352 z"
         id="path3596"
         inkscape:connector-curvature="0" /></g></g><g
     id="HAO_0000422"
     class="bodypart"><path
       inkscape:connector-curvature="0"
       id="path3518"
       d="m 297.1088,385.45138 c -1.38604,0.92403 -2.77209,1.84806 -4.15813,2.77209 -0.64703,1.04275 -1.36066,2.04664 -1.90428,3.14975 -0.29399,0.63132 -0.75227,1.16819 -1.09091,1.77041 -0.12364,0.34001 -0.24729,0.68003 -0.37093,1.02004 0.34349,0.39874 0.66452,0.82402 1.02175,1.20653 0.41244,0.22146 0.80146,0.50575 1.22849,0.68806 0.51538,0.0852 1.03321,0.21659 1.54705,0.27293 0.6561,-0.20578 1.32785,-0.38055 1.97427,-0.60549 0.52934,-0.41209 1.09261,-0.78917 1.60055,-1.22335 0.43253,-0.51078 0.80981,-1.07402 1.27936,-1.54966 0.25128,-0.22336 0.50257,-0.44673 0.75385,-0.67009 -10e-4,-1.66781 0.0218,-3.33607 -0.0679,-5.00224 -0.0184,-1.22219 -0.24523,-2.42797 -0.36668,-3.64214 -0.0531,-0.45165 -0.10627,-0.9033 -0.1594,-1.35495 -0.23101,0 -0.46202,0 -0.69303,0 -0.0105,0.63696 0.0208,1.28308 -0.0154,1.9144 -0.19289,0.4179 -0.38577,0.83581 -0.57865,1.25371 z"
       style="fill:#cce6ff;fill-opacity:0.99215686;fill-rule:evenodd;stroke:none;stroke-width:1px;stroke-linecap:butt;stroke-linejoin:miter;stroke-opacity:1" /></g><g
     id="HAO_0000731"
     class="bodypart"><path
       inkscape:connector-curvature="0"
       id="path4312"
       d="m 299.26237,359.14859 c 2.89083,-0.2921 5.82434,-0.41367 8.63883,-1.19499 1.04885,-2.21215 1.45384,-4.73665 2.97964,-6.71107 1.25219,-2.01395 2.63007,-3.96632 3.78115,-6.03291 0.17062,-1.53563 0.34125,-3.07125 0.51187,-4.60687 -0.99375,-0.63492 -1.12841,0.94631 -1.42791,1.56053 -0.99494,1.36759 -1.82365,2.86185 -2.7019,4.3126 -0.70935,1.23852 -1.77527,2.20761 -2.55213,3.4015 -1.34661,2.03628 -3.58069,3.16252 -5.38972,4.71848 -0.77858,0.73034 -1.60399,1.39105 -2.52036,1.94294 -1.00797,0.66231 -1.9441,1.47458 -2.6068,2.48381 0.19272,0.34439 0.9526,-9.8e-4 1.28733,0.12598 z"
       style="fill:#cce6ff;fill-opacity:0.99215686;fill-rule:evenodd;stroke:none;stroke-width:1px;stroke-linecap:butt;stroke-linejoin:miter;stroke-opacity:1" /></g><g
     id="HAO_0000639"
     class="bodypart"><path
       inkscape:connector-curvature="0"
       id="path4666"
       d="m 317.61433,330.37455 c -0.37275,1.91155 -0.94952,3.80504 -1.19528,5.72782 -0.0762,2.54888 0.5451,5.27882 -0.26771,7.71122 -1.52782,2.47139 -3.62895,4.56856 -4.70975,7.29578 -1.4183,2.39229 -3.10376,4.61347 -4.69619,6.89038 -2.88799,0.58789 -5.83439,0.60631 -8.75553,0.90574 -0.4524,0.86672 -1.75335,1.57286 -1.52372,2.56864 0.46229,2.90127 3.52308,3.51354 5.65265,4.84272 1.61063,0.68145 2.61219,2.1639 3.87181,3.30662 0.68258,2.57018 0.57153,5.21936 0.65002,7.84344 0.22533,2.60973 0.64882,5.23891 0.64502,7.84665 -0.22634,1.49936 -0.98626,2.99426 -0.42709,4.50016 1.88615,1.70248 4.77771,1.42106 7.21667,1.40287 2.48942,0.14807 5.17882,-0.11733 6.2148,-2.75736 2.19792,-3.1295 4.26487,-6.34519 6.6527,-9.33193 2.0656,-2.41822 -0.30076,-5.40672 -0.74034,-8.00841 -0.46043,-0.8376 -0.37335,-2.41294 -0.87211,-2.93808 -0.86599,0.3532 -1.66709,0.77649 -1.99164,1.71437 -0.55727,1.22955 -0.91842,1.38309 -0.98362,-0.0872 -0.25875,-1.15634 -0.48448,-2.31252 -0.0803,-3.4655 0.26196,-0.60246 0.17531,-2.48187 0.67021,-2.23103 1.04035,1.04259 1.776,2.50206 3.29905,2.88424 0.83966,0.44608 1.89028,0.68041 2.60201,1.25489 0.45942,0.83624 0.69132,1.9506 1.29296,2.61296 1.86454,1.19772 3.35349,-2.88746 1.13471,-3.25682 -1.98985,-1.55292 -3.58076,-3.64955 -4.7528,-5.83177 -0.0124,-0.92516 -0.24856,-2.2494 0.89378,-1.11565 0.98766,0.61496 1.93137,1.35921 3.16252,1.2578 0.96562,0.18528 2.11584,0.0659 2.97074,0.43392 0.43889,1.04205 1.08115,1.46421 2.08839,0.77386 0.93197,-0.41151 1.34233,-1.54326 2.05542,-2.25699 -2.02891,-1.36519 -4.32448,-2.0841 -6.65864,-2.66858 -2.27287,-0.6772 -4.36945,-1.88225 -5.90325,-3.70406 -0.68144,-0.59336 -1.79774,-0.21838 -2.65955,-0.41007 -2.10619,-0.25503 3.63764,-0.32263 4.80773,-0.30993 1.37207,0.55795 1.36148,-1.61972 2.0994,-1.4292 1.28835,0.13793 2.46277,0.46601 3.37517,1.45279 1.24906,0.79246 3.49505,1.15136 1.67233,-0.84413 -1.4156,-3.16001 -4.39388,-5.14699 -6.67516,-7.63544 -0.8487,-1.40934 -2.57959,-0.91033 -3.92921,-1.32504 -1.49815,-0.33867 -3.00706,-0.59775 -4.54563,-0.6374 -0.37391,-3.4606 -0.53183,-6.95669 -1.04438,-10.3945 -0.20538,-0.86261 -0.41077,-1.72522 -0.61615,-2.58783 z"
       style="fill:#97cafc;fill-opacity:0.99215686;fill-rule:evenodd;stroke:none;stroke-width:1px;stroke-linecap:butt;stroke-linejoin:miter;stroke-opacity:1" /></g><g
     id="HAO_0000504"
     class="bodypart"><path
       inkscape:connector-curvature="0"
       id="path4167"
       d="m 258.00314,334.53325 c 3.12733,1.85978 6.23318,3.75549 9.32468,5.67418 5.69043,6.7558 14.07819,10.12437 21.6835,14.16909 2.25857,1.4165 4.18817,3.28119 6.38604,4.78266 2.16537,-0.0908 4.66172,1.68076 4.21567,4.04694 0.56689,2.50949 -2.86547,3.63945 -4.20483,1.60981 -1.93634,-1.54849 -2.63871,-4.27696 -4.95779,-5.41848 -3.10021,-1.99919 -5.61503,-4.83001 -8.84734,-6.61707 -3.37514,-1.5132 -6.92048,-2.81964 -9.76359,-5.26557 -2.16232,-1.3564 -3.82307,-3.29284 -5.70748,-4.97205 -2.63238,-2.19332 -5.6556,-3.84771 -8.7033,-5.38384 0.19148,-0.87522 0.38296,-1.75045 0.57444,-2.62567 z"
       style="fill:#cce6ff;fill-opacity:0.99215686;fill-rule:evenodd;stroke:none;stroke-width:1px;stroke-linecap:butt;stroke-linejoin:miter;stroke-opacity:1" /></g><g
     class="bodypart"
     id="HAO_0000419"
     style="fill:#cce6ff;fill-opacity:0.99215686"><path
       style="fill:#cce6ff;fill-opacity:0.99215686;fill-rule:evenodd;stroke:none;stroke-width:1px;stroke-linecap:butt;stroke-linejoin:miter;stroke-opacity:1"
       d="m 256.00674,335.67734 c 0,0 -24.50137,32.11916 -41.76771,22.15781 -17.26635,-9.96135 -10.52749,-45.68403 -10.52749,-45.68403 0,0 -8.94578,16.63203 4.48071,41.1246 13.59058,24.7919 52.67855,-14.07662 47.81449,-17.59838 z"
       id="path4532"
       inkscape:connector-curvature="0"
       sodipodi:nodetypes="cscsc" /></g><g
     id="HAO_0000685"
     class="bodypart"><path
       inkscape:connector-curvature="0"
       id="path4725"
       d="m 477.76482,302.91317 c -1.45845,-2.26696 -4.77533,0.87181 -3.57172,2.68388 1.48373,0.48533 2.93175,-0.50238 3.29704,-1.9514 0.0916,-0.24416 0.18312,-0.48832 0.27468,-0.73248 z"
       style="fill:#cce6ff;fill-opacity:0.99215686;fill-rule:evenodd;stroke:none;stroke-width:1px;stroke-linecap:butt;stroke-linejoin:miter;stroke-opacity:1" /><path
       inkscape:connector-curvature="0"
       id="path4729"
       d="m 471.71839,302.32803 c -0.78094,-2.41576 -3.39363,-0.88748 -3.7403,0.87811 0.64724,1.63256 2.90005,0.1633 3.67096,-0.81373 l 0.0693,-0.0644 z"
       style="fill:#cce6ff;fill-opacity:0.99215686;fill-rule:evenodd;stroke:none;stroke-width:1px;stroke-linecap:butt;stroke-linejoin:miter;stroke-opacity:1" /><path
       inkscape:connector-curvature="0"
       id="path4731"
       d="m 469.86546,298.62216 c 0.26454,-1.37746 -0.64869,-3.12726 -1.49289,-1.11817 -1.59607,0.6668 -2.11272,3.13811 0.22454,2.05847 0.45771,-0.26564 0.81605,-0.66707 1.26835,-0.9403 z"
       style="fill:#cce6ff;fill-opacity:0.99215686;fill-rule:evenodd;stroke:none;stroke-width:1px;stroke-linecap:butt;stroke-linejoin:miter;stroke-opacity:1" /><path
       inkscape:connector-curvature="0"
       id="path4733"
       d="m 468.40261,293.06335 c 0.73521,-2.52991 -2.23319,-2.68669 -3.40992,-1.05757 -0.89931,1.76437 0.20657,4.05733 0.64843,5.71011 1.24668,-0.68436 3.33271,-1.76794 3.52953,-3.1846 -0.94507,0.16974 -3.3059,1.01408 -2.61035,-0.89701 0.33657,-0.69287 1.26319,-0.34935 1.84231,-0.57093 z"
       style="fill:#cce6ff;fill-opacity:0.99215686;fill-rule:evenodd;stroke:none;stroke-width:1px;stroke-linecap:butt;stroke-linejoin:miter;stroke-opacity:1" /><path
       inkscape:connector-curvature="0"
       id="path4735"
       d="m 463.52647,286.0417 c 2.02627,0.20067 1.13478,4.53739 -1.20275,3.34003 -2.86662,-0.18088 -3.73863,-3.45172 -3.75746,-5.85182 -10e-4,-2.11513 3.49566,-1.52138 4.94736,-0.95587 1.67054,1.30559 -1.97851,2.05672 0.0129,3.46766 z"
       style="fill:#cce6ff;fill-opacity:0.99215686;fill-rule:evenodd;stroke:none;stroke-width:1px;stroke-linecap:butt;stroke-linejoin:miter;stroke-opacity:1" /><path
       inkscape:connector-curvature="0"
       id="path4737"
       d="m 462.74628,278.14234 c -1.66976,0.90577 -3.59926,1.02338 -5.3697,1.58602 -1.74312,-0.446 -4.35764,-2.42294 -3.53559,-4.39895 1.20035,-1.68957 3.27968,-3.7927 5.54896,-2.76798 -0.59854,0.68745 -3.84064,3.07434 -1.17008,3.9119 1.59288,0.45237 3.50607,-0.44872 4.88933,0.65485 0.17016,0.36345 -0.23387,0.70951 -0.36292,1.01416 z"
       style="fill:#cce6ff;fill-opacity:0.99215686;fill-rule:evenodd;stroke:none;stroke-width:1px;stroke-linecap:butt;stroke-linejoin:miter;stroke-opacity:1" /><path
       inkscape:connector-curvature="0"
       id="path4741"
       d="m 454.7494,271.21821 c -1.50369,-1.50812 -5.32259,1.8323 -4.907,-1.45199 0.0812,-1.28294 3.20297,-2.85495 0.84542,-3.69059 -1.28663,0.72408 -2.22539,1.89597 -3.8307,1.89006 -1.75217,2.29386 1.58359,4.81105 3.75596,5.10701 1.79341,0.58994 2.28175,-1.71249 3.86403,-1.77665 0.0907,-0.026 0.1817,-0.0518 0.27229,-0.0778 z"
       style="fill:#cce6ff;fill-opacity:0.99215686;fill-rule:evenodd;stroke:none;stroke-width:1px;stroke-linecap:butt;stroke-linejoin:miter;stroke-opacity:1" /><path
       inkscape:connector-curvature="0"
       id="path4743"
       d="m 440.99867,258.54023 c -1.0721,1.35815 -2.87595,3.05653 -1.72831,4.91783 0.70472,2.28441 3.45212,2.94695 5.58196,2.66646 1.66398,-0.0371 3.66628,-0.74668 4.40584,-2.34946 -1.9908,-0.70732 -4.85308,0.55348 -6.86824,-0.99743 -1.84012,-1.66306 2.70539,-1.77906 2.0173,-3.92067 -0.33001,-1.65976 -2.55647,-1.29815 -3.40855,-0.31673 z"
       style="fill:#cce6ff;fill-opacity:0.99215686;fill-rule:evenodd;stroke:none;stroke-width:1px;stroke-linecap:butt;stroke-linejoin:miter;stroke-opacity:1" /></g><g
     id="HAO_0000831"
     class="bodypart"
     style="fill:#cce6ff;fill-opacity:0.99215686"><path
       inkscape:connector-curvature="0"
       id="path4382"
       d="m 303.76201,294.84792 c 1.79162,0 3.58325,0 5.37487,0 -0.1387,-2.275 2.92734,-7.97188 -1.10245,-7.12552 -3.04093,-0.0782 -7.63793,2.43662 -4.99291,5.92518 l 0.36318,0.60581 0.35731,0.59453 z"
       style="fill:#cce6ff;fill-opacity:0.99215686;fill-rule:evenodd;stroke:none;stroke-width:1px;stroke-linecap:butt;stroke-linejoin:miter;stroke-opacity:1" /><path
       inkscape:connector-curvature="0"
       id="path4386"
       d="m 317.28064,296.31379 c 1.45627,-2.28834 2.54788,-6.53704 0.26041,-8.44002 -3.15203,-2.08082 -5.54207,1.07733 -5.25716,4.12128 -0.95003,3.55147 2.28072,4.24004 4.99675,4.31874 z"
       style="fill:#cce6ff;fill-opacity:0.99215686;fill-rule:evenodd;stroke:none;stroke-width:1px;stroke-linecap:butt;stroke-linejoin:miter;stroke-opacity:1" /><path
       inkscape:connector-curvature="0"
       id="path4388"
       d="m 324.61002,299.5713 c 3.89975,1.11917 4.58362,-4.25406 3.50291,-6.81247 -2.14552,-3.93466 -6.69009,-1.60139 -7.01451,2.15947 -1.17825,1.90859 -0.21147,4.763 2.24608,4.46317 0.42184,0.0633 0.84368,0.12655 1.26552,0.18983 z"
       style="fill:#cce6ff;fill-opacity:0.99215686;fill-rule:evenodd;stroke:none;stroke-width:1px;stroke-linecap:butt;stroke-linejoin:miter;stroke-opacity:1" /><path
       inkscape:connector-curvature="0"
       id="path4390"
       d="m 332.75377,294.52217 c 3.75011,-0.42178 4.18927,4.38804 0.95325,5.5415 -2.50814,2.87717 -5.57415,0.60316 -2.87045,-2.2617 0.58406,-1.1238 1.18616,-2.24312 1.9172,-3.2798 z"
       style="fill:#cce6ff;fill-opacity:0.99215686;fill-rule:evenodd;stroke:none;stroke-width:1px;stroke-linecap:butt;stroke-linejoin:miter;stroke-opacity:1" /></g><g
     id="HAO_0002373"
     class="bodypart"><g
       id="g3579"><path
         style="fill:none;fill-rule:evenodd;stroke:#cbe5fd;stroke-width:1px;stroke-linecap:butt;stroke-linejoin:miter;stroke-opacity:1"
         d="m 307.41226,357.03835 c -5.8147,-1.10198 -11.87706,-0.2728 -16.18457,-5.30596 -11.72871,-8.4758 -22.08573,-19.3306 -26.28686,-33.52507"
         id="path3541"
         inkscape:connector-curvature="0"
         sodipodi:nodetypes="ccc" /><path
         style="fill:none;fill-rule:evenodd;stroke:#cbe5fd;stroke-width:1px;stroke-linecap:butt;stroke-linejoin:miter;stroke-opacity:1"
         d="m 277.8845,322.25222 c 7.72401,10.52295 14.32489,29.70488 28.58263,33.48709 5.18599,-3.54935 -8.049,-11.67325 -9.21803,-17.6076 -8.74678,-14.3859 -20.81566,-31.85658 -21.54133,-48.9533 -0.35935,-2.18518 -0.92312,-4.3529 -1.86816,-6.36395"
         id="path3543"
         inkscape:connector-curvature="0"
         sodipodi:nodetypes="ccccc" /><path
         style="fill:none;fill-rule:evenodd;stroke:#cbe5fd;stroke-width:1px;stroke-linecap:butt;stroke-linejoin:miter;stroke-opacity:1"
         d="m 306.80553,356.8361 c 8.4369,-1.37418 -12.84925,-43.90133 -18.83243,-65.08223 l -0.25576,-0.57058 -0.12508,-0.27903"
         id="path3545"
         inkscape:connector-curvature="0"
         sodipodi:nodetypes="cccc" /></g></g><g
     class="bodypart"
     id="HAO_0000853"><path
       sodipodi:nodetypes="ccccccccccccccccc"
       inkscape:connector-curvature="0"
       id="path4414"
       d="m 361.90927,242.52 c -0.18695,5.23125 -4.3912,10.81004 -0.96031,15.77829 1.41305,4.68592 7.77285,5.33736 9.13026,9.98115 -1.1932,5.4345 8.38524,-1.08966 6.56684,4.2981 5.78913,-2.14289 11.69204,19.13259 11.69009,25.0724 -1.1802,6.48046 -0.72397,20.66002 -4.14735,25.43246 1.82163,3.73369 -35.44943,-3.66887 -38.40417,-2.774 -6.96723,-0.67117 -12.67164,-4.11669 -18.66198,-7.65803 -5.10558,-2.6769 -11.03977,-4.59522 -16.24008,-7.0878 -6.62327,0.2079 -8.80242,-7.12318 -12.51348,-11.1598 -6.77784,-7.32426 -15.02247,-13.16897 -23.7978,-17.85875 -0.96364,-6.65226 4.84024,-11.32429 7.86795,-16.54893 4.50086,-6.06005 8.20661,-12.45888 14.50771,-17.37553 8.22969,-4.9565 15.78373,-5.82184 24.06081,-7.13907 5.87094,0.20983 11.7727,1.14708 17.49092,2.26305 6.48597,2.94813 13.82856,1.62414 20.65456,2.465 1.15833,0.42155 2.0259,1.35666 2.75603,2.31146 z"
       style="fill:#96c9fb;fill-opacity:1;fill-rule:evenodd;stroke:none;stroke-width:1px;stroke-linecap:butt;stroke-linejoin:miter;stroke-opacity:1" /></g><g
     id="HAO_0000615"
     class="bodypart"
     style="stroke:none"><path
       inkscape:connector-curvature="0"
       id="path4284"
       d="m 508.63267,305.31676 c -0.69144,4.16665 -4.14425,6.21491 -7.52885,8.1483 -3.40004,2.01383 -7.1599,3.31486 -11.09972,3.70623 -5.56383,1.05638 -11.24382,0.87349 -16.87262,0.99609 -4.76176,0.51565 -4.34304,-5.64001 -1.5816,-7.67117 -0.1937,-4.49184 -7.71567,-2.80735 -7.6557,-7.68381 -1.25446,-4.85682 -4.07367,-9.11441 -5.53515,-13.91148 -1.02685,-3.0111 -3.66653,-5.39909 -4.11197,-8.56535 -0.5991,-4.56872 5.49931,-0.3458 7.89533,0.0805 5.48825,2.85902 10.94965,6.01393 15.4652,10.28074 4.03981,2.92427 9.02098,4.01792 13.23472,6.66416 4.29282,2.03645 8.87067,3.3553 13.19428,5.32364 1.61722,0.71367 3.19055,1.55502 4.59608,2.63212 z"
       style="fill:#97cafc;fill-opacity:0.99215686;fill-rule:evenodd;stroke:none;stroke-width:1px;stroke-linecap:butt;stroke-linejoin:miter;stroke-opacity:1" /></g><g
     id="Wasp" /><rect
     y="-222.27362"
     x="266.98871"
     height="52.250618"
     width="37.321869"
     id="rect4211"
     style="opacity:0.98999999;fill:#97cafc;fill-opacity:1;stroke:none;stroke-width:3;stroke-linejoin:round;stroke-miterlimit:4;stroke-dasharray:none;stroke-dashoffset:1.39999962;stroke-opacity:1" /><rect
     style="opacity:0.98999999;fill:#cce6ff;fill-opacity:1;stroke:none;stroke-width:3;stroke-linejoin:round;stroke-miterlimit:4;stroke-dasharray:none;stroke-dashoffset:1.39999962;stroke-opacity:1"
     id="rect4213"
     width="37.321869"
     height="52.250618"
     x="221.15808"
     y="-222.27362" /><g
     id="HAO_0000101"
     inkscape:label="#g4152"
     class="bodypart"
     style="fill:#97cafc;fill-opacity:0.99215686"><path
       inkscape:connector-curvature="0"
       id="path4144"
       d="m 228.6634,392.85947 c -6.66166,-0.41986 -13.33222,-0.0248 -19.25111,3.42163 -7.01565,3.44427 -13.15966,7.0604 -21.38236,6.99865 -3.00603,6.25019 -8.41821,10.02001 -15.26038,12.15917 -3.25326,4.73566 -8.49067,10.63589 -14.80399,9.934 -6.27045,-4.54905 -9.71763,-11.96858 -14.62528,-17.84886 -4.84195,-6.31118 -9.53878,-12.97206 -15.3281,-18.38177 -7.94398,-3.23049 -14.45156,2.81128 -14.38241,10.91362 0.51031,12.26417 7.35805,23.46446 15.29691,32.50505 4.70373,3.85268 9.56059,8.02892 16.04399,7.995 6.01264,2.76078 15.06791,0.32333 16.89234,-5.18492 8.26671,4.7921 8.46624,-6.7897 15.21027,-8.09362 5.3622,-3.4041 7.16611,-12.63967 14.0871,-11.85727 6.98604,-0.0964 9.77711,-14.48425 15.83462,-7.65314 10.17036,1.96926 20.51507,2.78724 30.86483,3.1057 7.48272,1.25028 -8.74812,4.21831 -11.10155,7.72849 -4.50704,3.94201 -11.16529,6.55961 -9.24179,13.07262 -6.90252,3.08032 -9.55737,12.86493 -5.65904,18.68421 -1.62877,6.25567 -3.84872,13.33973 -2.59867,20.46107 -4.37059,5.64525 -12.84722,-0.91396 -18.7501,-1.07 -14.8612,-3.75832 -29.87483,-6.91454 -44.90129,-9.91415 -8.12569,-2.47863 -17.48441,5.847 -10.89636,13.43267 9.59038,11.34195 24.35197,16.50576 38.46837,19.48426 6.25663,2.17886 12.70145,3.78339 19.32512,2.67938 4.65178,-0.27772 9.30355,-0.55543 13.95533,-0.83315 2.20056,-3.79109 10.17601,-0.61553 11.90527,-7.07814 0.009,-7.05068 6.1123,-11.33135 3.85591,-18.98681 0.23088,-7.54429 -5.26216,-16.20215 0.49534,-21.95607 1.47982,-4.69444 -5.534,-16.42703 3.43836,-11.94254 7.50191,1.95942 15.38016,-3.16344 22.74185,-5.15126 8.94198,-4.57145 18.0747,-9.26001 24.81344,-16.89666 6.41075,-3.21083 5.46347,-10.36294 12.37389,-12.25165 2.47536,-5.86528 5.16745,-11.35107 7.84571,-16.7825 7.23556,-8.24742 -8.12612,-4.72942 -9.92305,0.35929 3.17881,7.08022 -6.30226,16.02245 -13.1621,15.8248 -10.66031,0.58758 -19.99476,-6.42065 -30.68893,-5.70331 -3.84387,-0.25253 -7.66292,-0.7696 -11.49214,-1.17379 z"
       style="fill:#97cafc;fill-opacity:0.99215686;fill-rule:evenodd;stroke:none;stroke-width:1px;stroke-linecap:butt;stroke-linejoin:miter;stroke-opacity:1" /></g><g
     id="HAO_0000203"
     inkscape:label="#g4153"
     class="bodypart"><path
       inkscape:connector-curvature="0"
       id="path4146"
       d="m 207.5162,493.47692 1.36749,-10.9399 -3.41872,-7.52118 -3.41872,-2.3931 -11.28177,-2.39311 -25.64038,-6.49556 -12.99113,-2.05123 -11.28177,-2.05123 -4.78621,1.70936 -2.3931,4.10246 0,5.12808 5.12807,7.1793 7.86306,4.10247 13.67487,7.1793 10.25615,3.07685 10.9399,3.41872 11.28177,1.36749 z"
       style="fill:#96c9fb;fill-opacity:1;fill-rule:evenodd;stroke:none;stroke-width:1px;stroke-linecap:butt;stroke-linejoin:miter;stroke-opacity:1" /></g><g
     id="HAO_0001186"
     class="bodypart"><path
       inkscape:connector-curvature="0"
       id="path4158"
       d="m 146.61524,460.7486 c 1.91267,2.27318 4.83843,4.52388 4.40783,7.83711 0.20805,3.0469 -2.13114,5.27777 -3.61643,7.67379 -1.05252,2.46687 -3.41745,3.29394 -5.88607,2.47867 -2.69586,-0.74816 -4.28179,-3.29462 -6.37577,-4.97939 -1.7925,-1.53933 -1.59022,-4.36013 -2.34742,-6.4755 -0.44487,-2.39155 -0.79352,-5.62272 2.24806,-6.39027 3.33174,-0.5879 6.95923,-0.92554 10.30955,-1.02359 0.45686,0.24099 0.8133,0.62322 1.26025,0.87918 z"
       style="fill:none;fill-opacity:0.97647059;fill-rule:evenodd;stroke:#96c9fb;stroke-width:1px;stroke-linecap:butt;stroke-linejoin:miter;stroke-opacity:1" /><path
       inkscape:connector-curvature="0"
       id="path4160"
       d="m 150.12047,462.19904 c 3.00155,0.33402 6.05594,0.66246 8.76954,2.08765 1.07701,0.46885 2.40828,0.67065 2.67408,2.04895 1.49849,2.93188 1.33936,6.46586 0.0867,9.45858 -0.62031,3.32547 -2.92695,5.8529 -4.71453,8.59695 -0.78592,1.47998 -2.99815,1.12289 -4.44032,1.18958 -2.41313,-0.92336 -4.73316,-2.23645 -6.7112,-3.9252 -0.0755,-2.33548 3.70788,-2.1447 3.81777,-4.68122 1.9098,-3.26227 3.94159,-7.09069 2.69818,-10.95933 -0.49869,-1.38904 -1.36548,-2.60005 -2.18027,-3.81596 z"
       style="fill:#96c9fb;fill-opacity:1;fill-rule:evenodd;stroke:none;stroke-width:1px;stroke-linecap:butt;stroke-linejoin:miter;stroke-opacity:1" /><path
       inkscape:connector-curvature="0"
       id="path4162"
       d="m 171.15184,466.7921 c 2.12234,1.81159 1.86881,4.73298 1.54135,7.19995 -0.10291,3.83336 -1.38408,7.49498 -2.54992,11.1063 -0.67505,1.60928 -1.59881,3.09777 -2.37579,4.65903 -2.25867,0.74329 -4.57694,0.53114 -6.52807,-0.89278 -1.31384,-1.01189 -4.82752,-1.54015 -4.72056,-2.79226 2.50697,-1.20808 3.39768,-3.75394 4.7371,-5.99454 1.97199,-3.51483 2.68295,-7.74656 2.15909,-11.72893 -0.0308,-1.4281 -2.46342,-4.81876 0.6602,-3.26927 2.34258,0.63821 4.73336,1.07426 7.0766,1.7125 z"
       style="fill:none;fill-opacity:1;fill-rule:evenodd;stroke:#97cafc;stroke-width:1px;stroke-linecap:butt;stroke-linejoin:miter;stroke-opacity:1" /><path
       inkscape:connector-curvature="0"
       id="path4176"
       d="m 173.44837,468.24253 c 2.9619,0.87935 6.71084,0.35994 9.05719,2.55171 1.34762,3.12583 1.23223,6.53978 0.57168,9.81755 -0.64467,2.66314 0.31603,5.97591 -1.81065,8.09551 -1.84746,1.70824 -2.44829,6.21658 -5.77845,4.86171 -2.91124,-0.40328 -5.81953,-1.06819 -8.56656,-2.08088 0.16423,-1.27933 3.15036,-1.81091 2.95096,-3.93564 2.59899,-6.04055 4.67651,-12.66919 3.57583,-19.30996 z"
       style="fill:#96c9fb;fill-opacity:1;fill-rule:evenodd;stroke:none;stroke-width:1px;stroke-linecap:butt;stroke-linejoin:miter;stroke-opacity:1" /><path
       inkscape:connector-curvature="0"
       id="path4183"
       d="m 184.81015,471.26428 c 2.99542,0.92209 6.22417,1.36438 8.87804,3.14533 2.68724,1.61694 0.41441,5.76715 1.93101,8.34696 0.64765,2.93648 -0.15062,6.04398 -2.00613,8.38735 -1.55857,1.97414 -3.09582,5.58197 -6.12771,4.47147 -2.54187,-0.53435 -6.44447,-0.18836 -7.97083,-2.17729 2.23337,-2.4172 4.2475,-5.27278 4.21779,-8.7074 0.0607,-3.10244 0.32714,-6.17906 0.83449,-9.23955 0.14283,-1.40457 0.21299,-2.81567 0.24334,-4.22687 z"
       style="fill:none;fill-opacity:0.97647059;fill-rule:evenodd;stroke:#96c9fb;stroke-width:1px;stroke-linecap:butt;stroke-linejoin:miter;stroke-opacity:1" /><path
       inkscape:connector-curvature="0"
       id="path4190"
       d="m 204.14934,475.85734 c 2.15948,4.13939 6.14579,8.6355 4.32697,13.60775 -1.6644,3.5773 -5.56326,5.79935 -9.46809,5.84708 -1.88979,-0.32528 -7.92167,2.59527 -7.02611,-0.76499 4.28076,-3.55951 5.44538,-9.53937 4.4686,-14.80973 -0.45642,-2.45262 -1.95618,-8.72176 2.60969,-6.59381 1.70405,0.88812 3.44141,1.72354 5.08894,2.7137 z"
       style="fill:#96c9fb;fill-opacity:1;fill-rule:evenodd;stroke:none;stroke-width:1px;stroke-linecap:butt;stroke-linejoin:miter;stroke-opacity:1" /></g><g
     id="HAO_0000351"
     class="bodypart"><path
       inkscape:connector-curvature="0"
       id="path3471"
       d="m 399.05039,227.04591 c 28.24385,-18.38804 60.47697,-29.6143 90.25778,-45.28973 26.86518,-8.93909 46.13122,-29.30141 70.43057,-42.43323 40.76966,-12.75812 69.62744,-46.983053 108.81932,-62.981862 30.55479,-15.083022 63.46139,-27.061993 98.09092,-25.005056 39.75494,1.767119 69.31381,49.533368 51.26266,85.777328 -10.90009,25.82429 -26.6354,51.23578 -52.07336,64.83241 -26.06103,17.18674 -58.69963,20.04943 -89.11072,22.97256 -29.68073,0.63631 -58.7033,8.57996 -88.49781,6.46908 -26.72639,1.63854 -52.58167,10.65744 -79.68255,8.33816 -33.83215,4.15871 -67.97691,-12.99608 -101.0146,-1.40157 -10.30003,2.02569 -13.63758,13.08495 -25.23615,3.74868 -17.2289,-0.82895 14.21545,-13.39982 16.75394,-15.02677 z"
       style="fill:#96c9fb;fill-opacity:1;fill-rule:evenodd;stroke:none;stroke-width:1px;stroke-linecap:butt;stroke-linejoin:miter;stroke-opacity:1" /></g><g
     id="HAO_0000326"
     class="bodypart"><path
       inkscape:connector-curvature="0"
       id="path3457"
       d="m 464.06332,307.47337 c -1.5216,2.87121 1.44352,5.3107 2.54098,7.72438 1.02385,2.64716 0.56169,5.79534 -0.54801,8.35012 -2.35891,3.91264 -8.11004,6.09299 -12.09463,3.29871 -4.89947,-2.5155 -10.23734,-4.95413 -15.88845,-4.33825 -3.86675,-0.30769 -6.96824,-2.86511 -10.23841,-4.67456 -4.17706,-4.72893 -8.60369,-9.23476 -13.36634,-13.37283 -2.91721,-3.05098 -5.43619,-6.51241 -7.62764,-10.09946 -1.33102,-3.09828 -2.67985,-6.54454 -1.76971,-9.95049 -0.32214,-3.50227 -1.66542,-7.84851 1.13969,-10.69202 2.33324,-1.284 5.04414,-2.63547 7.80819,-2.306 2.64774,0.32031 4.11655,3.30367 3.22599,5.70979 2.30019,4.82685 7.52629,6.93374 11.47384,10.09369 3.13011,3.17926 6.97412,5.54612 10.1599,8.66154 6.7227,5.07734 14.99865,7.25904 22.67394,10.38854 0.84213,0.39103 1.68249,0.78701 2.51066,1.20684 z"
       style="fill:#97cafc;fill-opacity:0.99215686;fill-rule:evenodd;stroke:none;stroke-width:1px;stroke-linecap:butt;stroke-linejoin:miter;stroke-opacity:1" /></g><g
     id="HAO_0000400"
     class="bodypart"><g
       id="g3507"><path
         style="fill:#96c9fb;fill-opacity:1;fill-rule:evenodd;stroke:none;stroke-width:1px;stroke-linecap:butt;stroke-linejoin:miter;stroke-opacity:1"
         d="m 409.11256,247.94166 c 3.88775,-3.01036 8.55662,-5.42786 9.41032,-10.74103 5.86774,-8.72864 14.39442,-15.55794 21.79318,-23.06276 9.4469,-7.18276 20.24908,-11.98427 30.92294,-17.01124 19.40907,-10.74026 39.05609,-21.0378 58.8321,-31.09318 18.86982,-9.18299 36.661,-20.30282 54.81719,-30.77216 22.68631,-12.97544 46.8703,-22.9882 70.18572,-34.71097 12.4954,-7.670802 26.21243,-13.174757 40.50401,-16.427032 4.24688,1.212686 9.09749,1.421263 11.49877,5.703462 3.50204,2.845886 1.88996,8.133418 2.17499,12.12635 -1.59959,7.71845 -0.70425,16.3008 -5.85075,22.79107 -5.32118,8.08714 -8.52139,17.84275 -16.32568,23.97656 -12.07136,11.37795 -23.53607,23.45917 -37.13577,33.06536 -12.89716,9.86129 -25.21007,20.56335 -39.47351,28.45846 -12.17587,7.27514 -23.71699,15.76074 -37.13194,20.67299 -7.24978,2.71108 -13.94576,7.63292 -21.99261,7.16207 -14.91492,0.81428 -29.8214,3.53789 -44.74854,1.58536 -17.71082,-1.50749 -35.44376,-2.43065 -53.20879,-2.89285 -6.71693,0.14819 -13.68207,-1.62402 -20.22555,-0.31287 -6.10293,1.58048 -10.68125,7.13347 -11.91139,13.21594 -3.74928,3.72837 -8.02611,-0.99903 -12.13469,-1.73353 z"
         id="path3499"
         inkscape:connector-curvature="0" /></g></g><g
     id="HAO_0000485"
     class="bodypart"><path
       inkscape:connector-curvature="0"
       id="path3530"
       d="m 474.42322,251.91915 c 7.40023,1.12987 14.808,2.21933 22.17786,3.53703 0.49458,1.38042 1.66056,2.73058 1.2297,4.27903 -0.56344,1.01419 -1.12687,2.02837 -1.69031,3.04256 0.39486,0.6581 0.78972,1.3162 1.18458,1.9743 -2.75322,0.83764 -5.54503,-0.30938 -8.3114,-0.42542 -2.51321,-0.4041 -5.36513,0.0699 -7.51316,-1.58676 -2.39078,-1.14189 -4.18484,-3.35911 -4.86131,-5.91441 -0.6898,-1.87676 -2.11218,-3.34483 -3.61318,-4.60629 -0.47355,-0.52907 -1.81894,-1.62372 -1.79277,-1.80121 1.06333,0.50039 2.12666,1.00078 3.18999,1.50117 z"
       style="fill:#96c9fb;fill-opacity:1;fill-rule:evenodd;stroke:none;stroke-width:1px;stroke-linecap:butt;stroke-linejoin:miter;stroke-opacity:1" /></g><g
     id="HAO_0000538"
     class="bodypart"><g
       id="g3700"><path
         style="fill:#96c9fb;fill-opacity:1;fill-rule:evenodd;stroke:#96c9fb;stroke-width:1px;stroke-linecap:butt;stroke-linejoin:miter;stroke-opacity:1"
         d="m 419.92511,260.8013 c 1.2297,-0.59728 2.4594,-1.19457 3.6891,-1.79185 0.52414,0.0168 1.14476,0.15414 1.40267,0.66304 0.25534,0.55365 5.7e-4,1.18637 -0.3158,1.65793 -0.50413,0.72749 -1.32077,1.33628 -2.23903,1.32039 -0.49511,-0.0132 -0.93813,-0.28137 -1.31741,-0.57823 -0.45007,-0.381 -0.77102,-0.88871 -1.21953,-1.27128 z"
         id="path3627"
         inkscape:connector-curvature="0" /><path
         style="fill:#96c9fb;fill-opacity:1;fill-rule:evenodd;stroke:#96c9fb;stroke-width:1px;stroke-linecap:butt;stroke-linejoin:miter;stroke-opacity:1"
         d="m 427.40872,266.28225 -3.4783,1.05402 c 0,0 -1.15943,-0.63241 -0.94862,-1.37023 0.2108,-0.73782 1.89725,-1.89726 2.84587,-1.89726 0.94863,0 1.79185,-0.52701 2.00266,0.63242 0.2108,1.15943 -0.42161,1.58105 -0.42161,1.58105 z"
         id="path3651"
         inkscape:connector-curvature="0" /><path
         style="fill:#96c9fb;fill-opacity:1;fill-rule:evenodd;stroke:#96c9fb;stroke-width:1px;stroke-linecap:butt;stroke-linejoin:miter;stroke-opacity:1"
         d="m 427.09251,271.02538 c 1.68311,0.18379 5.77593,-2.32261 1.90471,-2.17737 -1.31294,0.063 -4.41376,1.10813 -1.4831,2.07195"
         id="path3653"
         inkscape:connector-curvature="0" /><path
         style="fill:#96c9fb;fill-opacity:1;fill-rule:evenodd;stroke:#96c9fb;stroke-width:1px;stroke-linecap:butt;stroke-linejoin:miter;stroke-opacity:1"
         d="m 430.5708,273.97666 c 4.9002,-1.07831 -2.2064,4.86233 -1.64416,0.4005 0.39985,-0.46153 1.09382,-0.44009 1.64416,-0.4005 z"
         id="path3655"
         inkscape:connector-curvature="0" /><path
         style="fill:#96c9fb;fill-opacity:1;fill-rule:evenodd;stroke:#96c9fb;stroke-width:1px;stroke-linecap:butt;stroke-linejoin:miter;stroke-opacity:1"
         d="m 432.88967,278.19277 c 4.43399,-0.87413 0.65285,4.77314 -1.31117,1.96599 -0.4631,-0.93707 0.39426,-1.87762 1.31117,-1.96599 z"
         id="path3657"
         inkscape:connector-curvature="0" /><path
         style="fill:#96c9fb;fill-opacity:1;fill-rule:evenodd;stroke:#96c9fb;stroke-width:1px;stroke-linecap:butt;stroke-linejoin:miter;stroke-opacity:1"
         d="m 435.73555,283.25211 c -3.20599,0.99192 1.30139,4.24189 2.31455,1.05392 1.27033,-1.55305 -1.76212,-2.57229 -2.31455,-1.05392 z"
         id="path3659"
         inkscape:connector-curvature="0" /><path
         style="fill:#96c9fb;fill-opacity:1;fill-rule:evenodd;stroke:#96c9fb;stroke-width:1px;stroke-linecap:butt;stroke-linejoin:miter;stroke-opacity:1"
         d="m 437.21119,289.89249 c 1.49946,-3.29598 7.44468,-0.71197 3.33509,1.87522 -1.70524,1.04441 -1.49831,-2.46113 -3.33509,-1.87522 z"
         id="path3661"
         inkscape:connector-curvature="0" /><path
         style="fill:#96c9fb;fill-opacity:1;fill-rule:evenodd;stroke:#96c9fb;stroke-width:1px;stroke-linecap:butt;stroke-linejoin:miter;stroke-opacity:1"
         d="m 441.63811,294.84643 c 1.19126,-2.67317 6.69569,-1.86559 3.80509,1.23594 -1.98951,1.82627 -2.39906,-0.5966 -3.80509,-1.23594 z"
         id="path3663"
         inkscape:connector-curvature="0" /><path
         style="fill:#96c9fb;fill-opacity:1;fill-rule:evenodd;stroke:#96c9fb;stroke-width:1px;stroke-linecap:butt;stroke-linejoin:miter;stroke-opacity:1"
         d="m 447.64607,301.38141 c 5.50812,-0.82068 -1.73639,-6.88194 -1.5998,-1.28867 0.54287,0.38988 1.59273,0.41155 1.5998,1.28867 z"
         id="path3665"
         inkscape:connector-curvature="0" /><path
         style="fill:#96c9fb;fill-opacity:1;fill-rule:evenodd;stroke:#96c9fb;stroke-width:1px;stroke-linecap:butt;stroke-linejoin:miter;stroke-opacity:1"
         d="m 453.75944,305.07051 c 3.1371,-3.81666 -5.24647,-4.63055 -3.48364,-0.6593 1.10878,0.47118 2.38558,0.15314 3.48364,0.6593 z"
         id="path3667"
         inkscape:connector-curvature="0" /><path
         style="fill:#96c9fb;fill-opacity:1;fill-rule:evenodd;stroke:#96c9fb;stroke-width:1px;stroke-linecap:butt;stroke-linejoin:miter;stroke-opacity:1"
         d="m 458.60797,308.86501 c 3.13566,-4.34505 -6.46247,-4.80657 -4.58592,-0.76145 1.82893,0.23209 4.34098,-2.63641 3.23394,0.97136 0.005,0.84989 1.10942,-0.12912 1.35198,-0.20991 z"
         id="path3671"
         inkscape:connector-curvature="0" /></g></g><g
     id="HAO_0000559"
     class="bodypart"><path
       sodipodi:nodetypes="ccccccc"
       inkscape:connector-curvature="0"
       id="path3746"
       d="m 404.17393,286.33256 -1.00641,1.00641 c 0,0 18.31665,40.65893 44.08072,36.6333 l -0.60384,-2.81795 c -24.46882,3.08891 -38.44483,-28.31364 -41.66534,-34.01663 l -1.81154,-0.20128 0,0.60384"
       style="fill:#96c9fb;fill-opacity:1;fill-rule:evenodd;stroke:#96c9fb;stroke-width:1px;stroke-linecap:butt;stroke-linejoin:miter;stroke-opacity:1" /></g><g
     id="HAO_0000614"
     class="bodypart"><path
       sodipodi:nodetypes="ccc"
       inkscape:connector-curvature="0"
       id="path4675"
       d="m 469.95851,278.18147 -0.92803,1.11365 c 0,0 7.4243,18.18954 34.70862,24.5002 l 0.18561,-2.22729 c 0,0 -16.14787,0.74243 -33.9662,-23.38656 z"
       style="fill:#97cafc;fill-opacity:0.99215686;fill-rule:evenodd;stroke:#97cafc;stroke-width:1px;stroke-linecap:butt;stroke-linejoin:miter;stroke-opacity:0.99215686" /></g><g
     id="HAO_0000653"
     class="bodypart"><path
       inkscape:connector-curvature="0"
       id="path4307"
       d="m 275.32233,277.34279 -0.547,1.27633 2.55266,1.27633 c 0,0 24.06791,13.67495 34.82554,39.74852 10.75763,26.07357 5.28765,7.2933 5.28765,7.2933 0,0 -7.47564,-20.96825 -11.85163,-25.7089 -4.37598,-4.74065 -15.31594,-16.95694 -18.78026,-18.59793 -3.46432,-1.641 -7.29331,-5.28765 -9.29897,-5.46998 -2.00566,-0.18234 -2.18799,0.18233 -2.18799,0.18233 z"
       style="fill:#96c9fb;fill-opacity:1;fill-rule:evenodd;stroke:none;stroke-width:1px;stroke-linecap:butt;stroke-linejoin:miter;stroke-opacity:1" /></g><g
     id="HAO_0000575"
     class="bodypart"><path
       sodipodi:nodetypes="ccccc"
       inkscape:connector-curvature="0"
       id="path3835"
       d="m 360.60915,239.82049 c 53.55916,-13.16656 31.30101,-10.93021 25.0129,-12.10929 -9.53684,-1.25166 -19.74344,-1.5153 -36.61765,-0.65255 -11.19637,-0.2629 -24.96211,-0.76898 -27.86577,7.51646 z"
       style="fill:#96c9fb;fill-opacity:1;fill-rule:evenodd;stroke:#96c9fb;stroke-width:1px;stroke-linecap:butt;stroke-linejoin:miter;stroke-opacity:1" /></g><g
     id="HAO_0000751"
     class="bodypart"><path
       inkscape:connector-curvature="0"
       id="path4320"
       d="m 425.41172,256.70249 2.2164,0.41558 2.77051,1.93936 c 0,0 13.15992,9.55825 14.1296,11.22056 0.96968,1.66231 8.58858,9.97383 9.41973,11.35909 0.83115,1.38525 6.09512,11.49761 6.64922,13.57549 0.55411,2.07789 2.07789,4.57134 2.49346,7.0648 0.41558,2.49346 0.69263,4.70987 0.69263,4.70987 0,0 1.38525,1.38525 -0.69263,0.41558 -2.07788,-0.96968 -4.29429,-1.66231 -4.29429,-1.66231 0,0 -5.12544,-3.18609 -5.67954,-3.46314 -0.5541,-0.27705 -2.35493,-2.35493 -2.90904,-3.04756 -0.5541,-0.69262 -2.90903,-3.87871 -4.01723,-4.70986 -1.10821,-0.83116 -4.98692,-4.57134 -6.09513,-5.9566 -1.1082,-1.38525 -2.90903,-5.67954 -3.60166,-6.64922 -0.69262,-0.96968 -2.2164,-3.87871 -3.32461,-5.9566 -1.1082,-2.07788 -4.70986,-11.63614 -4.70986,-11.63614 z"
       style="fill:#97cafc;fill-opacity:0.99215686;fill-rule:evenodd;stroke:none;stroke-width:1px;stroke-linecap:butt;stroke-linejoin:miter;stroke-opacity:1" /></g><g
     id="HAO_0000763"
     class="bodypart"
     style="fill:#cce6ff;fill-opacity:0.99215686"><path
       inkscape:connector-curvature="0"
       id="path4325"
       d="m 501.8384,260.42142 c -0.94944,0.46859 -2.09078,0.72064 -2.75372,1.61527 -0.35221,0.50336 -0.77265,0.95646 -1.15449,1.43802 0.004,1.04822 0.5293,2.05273 1.33265,2.7128 0.99711,1.09715 2.08096,2.21336 3.50482,2.73269 0.54695,0.48398 1.31767,0.30741 1.95966,0.16986 0.40549,-0.10638 0.97874,0.0464 1.1927,-0.43078 0.29455,-0.75422 -0.0559,-1.55819 0.0228,-2.3353 0.0201,-1.46262 -0.0999,-3.05539 -1.03944,-4.24928 -0.5452,-0.57964 -1.06946,-1.18052 -1.59934,-1.77541 -0.48855,0.0407 -0.97709,0.0814 -1.46564,0.12213 z"
       style="fill:#cce6ff;fill-opacity:0.99215686;fill-rule:evenodd;stroke:none;stroke-width:1px;stroke-linecap:butt;stroke-linejoin:miter;stroke-opacity:1" /></g><g
     id="HAO_0000783"
     class="bodypart"><path
       sodipodi:nodetypes="ccccccccc"
       inkscape:connector-curvature="0"
       id="path4339"
       d="m 589.08991,131.5368 c -7.69045,-4.66937 7.10677,-8.41 10.09056,-12.06719 23.89638,-14.87279 46.87633,-27.923774 71.98839,-40.719904 9.30718,-4.595978 5.572,-3.166204 14.82673,-7.761625 2.41815,-2.019122 27.90079,-11.225641 19.98579,-7.007299 -14.00091,6.027139 -27.58008,12.924391 -40.936,20.26683 -12.22392,6.8071 -25.32494,12.014644 -36.66177,20.324838 -10.06836,6.99295 -20.9631,12.70908 -31.09964,19.55811 -2.90576,2.26788 -5.57114,4.82226 -8.19406,7.40624 z"
       style="fill:#97cafc;fill-opacity:0.99215686;fill-rule:evenodd;stroke:#97cafc;stroke-width:1px;stroke-linecap:butt;stroke-linejoin:miter;stroke-opacity:0.99215686" /></g><g
     id="HAO_0000816"
     class="bodypart"
     style="fill:#cce6ff;fill-opacity:0.99215686"><path
       inkscape:connector-curvature="0"
       id="path4346"
       d="m 405.0703,281.16641 c -2.1367,1.09917 -1.02854,5.36307 -3.87565,4.68452 -1.89194,0.3924 -5.98768,1.10262 -5.00309,-1.93007 2.705,-0.54871 4.63602,-3.51103 7.49619,-3.2482 0.46085,0.16458 0.9217,0.32919 1.38255,0.49375 z"
       style="fill:#cce6ff;fill-opacity:0.99215686;fill-rule:evenodd;stroke:none;stroke-width:1px;stroke-linecap:butt;stroke-linejoin:miter;stroke-opacity:1" /><path
       inkscape:connector-curvature="0"
       id="path4348"
       d="m 401.64992,275.14004 c -3.08381,0.45881 -5.63181,2.29714 -8.30662,3.74612 -0.14683,3.32791 3.95286,0.48821 5.64168,0.29319 1.92509,-0.3932 2.97686,-2.15584 2.66494,-4.03931 z"
       style="fill:#cce6ff;fill-opacity:0.99215686;fill-rule:evenodd;stroke:none;stroke-width:1px;stroke-linecap:butt;stroke-linejoin:miter;stroke-opacity:1" /><path
       inkscape:connector-curvature="0"
       id="path4356"
       d="m 399.2068,270.09091 c -0.89575,1.47901 1.19382,3.50315 -1.45068,3.65001 -1.12632,0.51713 -2.55697,0.5874 -3.17379,1.80646 -1.605,1.48947 -5.1686,1.78715 -6.35247,-0.17192 -0.044,-3.14775 3.80828,-3.75482 6.08156,-4.73811 1.59706,-0.34554 3.31323,-1.56457 4.89538,-0.54644 z"
       style="fill:#cce6ff;fill-opacity:0.99215686;fill-rule:evenodd;stroke:none;stroke-width:1px;stroke-linecap:butt;stroke-linejoin:miter;stroke-opacity:1" /><path
       inkscape:connector-curvature="0"
       id="path4358"
       d="m 399.36967,266.67053 c 0.17264,-3.01226 -3.6218,-2.37907 -5.15422,-3.86174 -1.99048,-2.1705 -1.56116,1.95945 -3.96374,1.31144 -1.93613,-0.24615 -3.87491,1.86226 -1.14409,2.45517 2.34503,0.4938 4.91032,1.07263 7.23663,0.20908 0.96883,-0.31073 2.05189,-0.54819 3.02542,-0.11395 z"
       style="fill:#cce6ff;fill-opacity:0.99215686;fill-rule:evenodd;stroke:none;stroke-width:1px;stroke-linecap:butt;stroke-linejoin:miter;stroke-opacity:1" /></g><g
     id="HAO_0000940"
     class="bodypart"><path
       style="fill:#96c9fb;fill-opacity:1;fill-rule:evenodd;stroke:none;stroke-width:1px;stroke-linecap:butt;stroke-linejoin:miter;stroke-opacity:1"
       d="m 348.75875,228.28862 c 2.33564,3.81212 5.87644,6.65204 9.38008,9.329 1.4175,1.19889 -0.4777,1.88599 -1.55998,1.46515 -3.87002,0.0222 -7.7939,0.54797 -11.6291,-0.13284 -3.38953,-0.87736 -6.68461,-2.24023 -10.21687,-2.445 -4.4037,-0.58043 -8.8083,-1.3415 -13.25106,-1.47793 -2.02905,0.25701 -4.03463,0.66352 -6.0497,1.0078 10.50649,-3.23526 21.09636,-6.56654 32.07873,-7.69266 0.41552,-0.0266 0.83162,-0.0451 1.2479,-0.0535 z"
       id="path4447"
       inkscape:connector-curvature="0" /></g><g
     id="HAO_0000972"
     class="bodypart"><path
       inkscape:connector-curvature="0"
       id="path4455"
       d="m 582.37192,140.33866 c 5.35449,4.91531 -4.67749,10.60777 -6.6874,15.31698 -16.07258,19.44992 -38.83475,32.09754 -62.5749,39.7676 -31.08484,11.78259 -63.27233,20.33992 -94.48816,31.72339 -4.33356,1.32628 -14.13113,9.27391 -15.4157,2.32302 5.47198,-4.68336 13.54432,-4.28164 19.85852,-7.50038 22.75369,-8.19506 46.00925,-14.88661 69.21879,-21.61871 20.83193,-7.81171 42.52563,-14.821 60.25261,-28.77491 8.24404,-5.84033 16.4303,-11.85248 22.85063,-19.75429 3.57889,-2.94075 4.74224,-7.58539 6.98561,-11.4827 z"
       style="fill:#96c9fb;fill-opacity:1;fill-rule:evenodd;stroke:none;stroke-width:1px;stroke-linecap:butt;stroke-linejoin:miter;stroke-opacity:1" /></g><g
     id="HAO_0001031"
     class="bodypart"><path
       inkscape:connector-curvature="0"
       id="path4462"
       d="m 362.87105,273.98413 c 2.14879,-3.67305 -3.85886,-5.79137 -5.98002,-7.94969 -3.39829,-2.88934 -7.80202,-3.7787 -12.14994,-3.73526 -6.39997,-0.32525 -12.93224,0.77679 -19.23837,-0.61728 -5.59885,-1.72758 -11.17373,-4.33891 -17.17435,-3.86222 -6.66144,-0.60978 -12.01264,4.13572 -18.05689,6.04241 -2.51939,0.92169 -5.12166,1.55977 -7.46598,2.88134 -2.8159,1.237 -6.56437,1.75169 -8.0602,4.73948 -0.0923,4.00099 4.90037,0.15337 6.92209,-0.28415 6.43695,-2.62757 13.53062,-2.796 20.00676,-5.30546 3.19623,-0.86899 6.33598,-2.51673 9.64544,-2.63838 4.37367,0.7858 8.10304,3.8181 12.67617,3.79725 8.39119,0.86155 16.83951,0.44198 25.26068,0.54145 3.55451,1.65612 6.74368,4.03919 9.47796,6.83931 1.14303,0.81356 7.13451,3.06652 4.13665,-0.4488 z"
       style="fill:#96c9fb;fill-opacity:1;fill-rule:evenodd;stroke:none;stroke-width:1px;stroke-linecap:butt;stroke-linejoin:miter;stroke-opacity:1" /></g><g
     id="HAO_0000574"
     class="bodypart"><path
       inkscape:connector-curvature="0"
       id="path4651"
       d="m 438.76421,235.35735 c 11.22236,6.75328 16.53226,5.5426 17.34089,11.43059 l -24.28958,1.09643 c -11.31372,-0.84476 -17.34392,-1.36478 -27.57886,-1.36478 l -6.73499,0 c -1.38808,-0.1345 -3.07011,0.26338 -4.26091,-0.2749 -1.95485,-1.58276 -3.35008,-2.42406 -5.63539,-3.84856 -2.07331,-1.12622 -3.81094,-2.06945 -6.59754,-2.88643 2.44459,-17.71742 48.6706,-7.62188 57.75638,-4.15235 z"
       style="fill:#97cafc;fill-opacity:0.99215686;fill-rule:evenodd;stroke:#97cafc;stroke-width:1px;stroke-linecap:butt;stroke-linejoin:miter;stroke-opacity:0.99215686"
       sodipodi:nodetypes="ccccccccc" /></g><g
     id="HAO_0000556"
     class="bodypart"><path
       inkscape:connector-curvature="0"
       id="path3733"
       d="m 361.09584,239.53127 c 20.84866,-10.83464 36.72467,-8.4308 40.18117,-8.64752 l -0.62407,8.11291 c 5.28491,0.28483 36.62463,3.96354 41.89249,4.39481 0.30817,-5.83446 -4.39169,-10.59392 -14.8832,-13.86069 -10.49151,-3.26677 -26.77467,-5.04086 -49.63312,-4.90456 -51.77743,1.72491 -56.70151,13.22164 -62.24652,11.64066"
       style="fill:#96c9fb;fill-opacity:1;fill-rule:evenodd;stroke:#96c9fb;stroke-width:1px;stroke-linecap:butt;stroke-linejoin:miter;stroke-opacity:1"
       sodipodi:nodetypes="ccccscc" /></g><g
     id="HAO_0001861"
     class="bodypart"><path
       inkscape:connector-curvature="0"
       id="path4543"
       d="m 520.89831,274.94368 10.37747,-5.06218 15.94587,-5.06218 21.26115,-7.08705 4.80907,-1.51866 2.27798,1.26555 1.01244,4.30285 -1.77176,3.29042 -1.51866,2.27798 -1.26554,2.02487 -1.77176,1.01244 -16.7052,1.26554 -8.09949,0.75933 -9.61814,0.50622 -8.35259,1.01243 z"
       style="fill:#97cafc;fill-opacity:0.99215686;fill-rule:evenodd;stroke:none;stroke-width:1px;stroke-linecap:butt;stroke-linejoin:miter;stroke-opacity:1" /><path
       inkscape:connector-curvature="0"
       id="path4545"
       d="m 662.0219,251.74561 c -1.98352,5.05846 -4.3044,9.97463 -6.94738,14.71672 -1.75324,2.88191 -1.64268,8.69446 -6.33892,6.72015 -13.73798,-1.15428 -27.47535,-2.46781 -41.23405,-3.27765 -9.16542,0.15793 -18.33255,0.11959 -27.49888,0.11173 -2.0242,-0.91686 -7.31759,0.0186 -7.23807,-2.27078 1.43468,-2.13264 2.86937,-4.26527 4.30405,-6.39791 -0.18237,-1.69634 -2.29705,-4.67792 -1.84131,-5.26162 15.50217,-1.65534 31.13378,-1.36592 46.63674,-3.0159 10.59365,-0.88835 21.21515,-1.50528 31.84047,-1.7881 2.77772,0.036 5.54179,0.35555 8.31735,0.46336 z"
       style="fill:#97cafb;fill-opacity:1;fill-rule:evenodd;stroke:none;stroke-width:1px;stroke-linecap:butt;stroke-linejoin:miter;stroke-opacity:1" /><path
       inkscape:connector-curvature="0"
       id="path4549"
       d="m 746.44169,262.28142 -2.13383,4.1343 -1.06692,6.4015 0.53346,6.13477 -0.26673,3.20075 -0.93355,2.00047 -1.60037,0.4001 -87.48719,-11.06927 0.66683,-3.60084 c 0,0 1.46701,-2.2672 1.8671,-2.80066 0.4001,-0.53345 2.93402,-4.1343 3.06739,-4.66776 0.13336,-0.53346 2.00047,-8.13524 2.00047,-8.13524 l 1.46701,-2.93402 21.73843,2.40056 18.40431,1.86711 c 0,0 19.33787,3.20075 20.00469,3.33411 0.66683,0.13337 14.27002,0.80019 14.27002,0.80019 l 8.00187,1.73374 z"
       style="fill:#97cafb;fill-opacity:1;fill-rule:evenodd;stroke:none;stroke-width:1px;stroke-linecap:butt;stroke-linejoin:miter;stroke-opacity:1" /><path
       inkscape:connector-curvature="0"
       id="path4551"
       d="m 802.98829,275.75124 -0.53346,2.53393 1.33364,1.73374 -1.20028,2.13383 c 0,0 0,2.6673 0,3.20075 0,0.53346 0.66683,2.13384 0.66683,2.80066 0,0.66682 0,3.86757 0,3.86757 l 0.80018,1.86711 -53.8793,-8.40197 -6.13477,-0.80019 0,-7.60178 c 0,0 0,-3.60085 0,-4.1343 0,-0.53346 1.60038,-5.06786 1.60038,-5.06786 l 0.93355,-4.5344 0.66682,-1.06691 8.93543,1.46701 22.00516,6.26813 20.80488,4.80113 z"
       style="fill:#97cafb;fill-opacity:1;fill-rule:evenodd;stroke:none;stroke-width:1px;stroke-linecap:butt;stroke-linejoin:miter;stroke-opacity:1" /><path
       inkscape:connector-curvature="0"
       id="path4553"
       d="m 834.5957,287.88742 c -0.81109,3.4774 -0.62968,7.20047 -0.81883,10.63811 -2.09598,-0.54388 -3.9663,-0.57583 -5.96791,0.34278 -3.13186,-0.3476 -6.00582,-1.89767 -9.08682,-2.55372 -4.39575,-0.96875 -8.9287,-1.14181 -13.36932,-1.88874 -2.96878,-0.0529 -1.7418,-4.18845 -2.72328,-6.08767 -0.82699,-2.63268 -0.61409,-5.36541 -0.051,-8.0193 0.017,-2.5145 1.23998,-4.61057 3.8238,-2.95012 3.17113,0.81081 6.31124,1.77682 9.17471,3.40977 3.14363,1.78867 6.58719,2.88782 10.13847,3.51414 3.16833,0.64207 5.95747,2.29973 8.88019,3.59475 z"
       style="fill:#97cafb;fill-opacity:1;fill-rule:evenodd;stroke:none;stroke-width:1px;stroke-linecap:butt;stroke-linejoin:miter;stroke-opacity:1" /><path
       inkscape:connector-curvature="0"
       id="path4559"
       d="m 834.72906,288.95434 c 4.95247,1.62263 9.84798,3.40991 14.78528,5.07715 1.97638,0.87202 3.96114,1.72772 6.0196,2.39127 -0.91525,1.46303 -1.34899,3.17243 -2.38389,4.56773 -1.43623,0.19396 -2.4903,-1.1431 -3.87093,-1.30933 -2.4557,-0.42406 -4.83299,-1.23735 -7.32657,-1.46871 -2.56994,-0.32552 -5.20912,-0.34845 -7.65508,-1.30831 -0.74485,-0.40786 -0.6212,-1.42992 -0.45713,-2.17306 0.29624,-1.92558 0.59248,-3.85116 0.88872,-5.77674 z"
       style="fill:#97cafb;fill-opacity:1;fill-rule:evenodd;stroke:none;stroke-width:1px;stroke-linecap:butt;stroke-linejoin:miter;stroke-opacity:1" /></g><g
     id="HAO_0001872"
     class="bodypart"><path
       inkscape:connector-curvature="0"
       id="path4591"
       d="m 408.31008,252.14091 c 5.25671,5.39834 13.13492,8.59401 15.253,16.53612 7.07508,14.42645 17.07639,27.78436 30.37744,36.97386 11.25587,-0.68994 18.61659,17.3393 6.83486,22.24864 -8.7393,3.63061 -14.25518,12.48491 -23.935,14.21464 -16.98387,1.96753 -34.00877,-2.72893 -50.11457,-7.6804 -8.55194,-6.69483 1.84711,-16.98427 1.18747,-25.35645 1.67928,-10.68037 0.60796,-21.52642 -4.03231,-31.3272 -2.96626,-8.48377 -12.51059,-11.92827 -15.89156,-20.26351 -9.08036,-11.97098 9.76039,-22.33612 19.44013,-15.6816 5.78198,3.76734 11.91453,7.26561 19.0168,6.76288 3.71799,-0.38989 1.93351,0.98997 1.86374,3.57302 z"
       style="fill:#97cafc;fill-opacity:1;fill-rule:evenodd;stroke:none;stroke-width:1px;stroke-linecap:butt;stroke-linejoin:miter;stroke-opacity:1" /></g><g
     id="HAO_0000635"
     class="bodypart"><path
       inkscape:connector-curvature="0"
       id="path4611"
       d="m 467.42708,317.24235 c 2.88383,1.99891 4.97369,5.59571 8.54878,6.26804 3.2725,0.0657 5.03449,3.07935 7.30078,4.99436 1.60622,2.08292 2.11926,4.87086 3.18871,7.27664 1.25051,3.26127 2.22308,6.62273 2.33716,10.13482 0.35591,3.78725 -0.009,7.60566 -0.30772,11.38345 -2.14299,7.87974 -4.39765,15.74151 -6.58444,23.61443 -1.09308,1.27526 -2.18615,2.55051 -3.27923,3.82577 -0.53982,-4.14544 -1.02704,-8.29811 -1.63962,-12.43376 -2.17045,-3.71479 -4.90022,-7.09893 -6.69839,-11.02664 -2.72455,-4.68985 -5.40312,-9.4312 -8.89956,-13.60372 -1.49585,-1.66286 -2.39246,-3.90857 -4.16028,-5.26164 -2.16883,-1.62688 -4.75812,-3.33358 -7.58855,-2.64602 -0.98101,0.25143 -2.28015,-0.0745 -3.05407,0.55275 -0.87472,1.7133 -1.76127,2.34416 -1.68846,-0.0346 1.21153,-2.57688 4.11643,-4.32544 6.14893,-6.39403 3.56088,-2.01607 7.35559,-3.66848 10.76068,-5.92859 1.72203,-1.78682 4.35361,-2.99101 4.91776,-5.59224 0.81854,-1.64632 0.746,-3.359 0.69752,-5.12897 z"
       style="fill:#97cafc;fill-opacity:0.99215686;fill-rule:evenodd;stroke:none;stroke-width:1px;stroke-linecap:butt;stroke-linejoin:miter;stroke-opacity:1" /></g><g
     id="HAO_0000644"
     class="bodypart"
     style="fill:#96c9fb;fill-opacity:1"><path
       inkscape:connector-curvature="0"
       id="path4672"
       d="m 369.16769,264.54413 c 0.69792,1.55225 2.20337,3.79849 1.13232,5.30762 -2.93315,3.91231 -4.89244,8.43885 -7.5918,12.50571 -1.6047,2.76282 -2.76911,5.74846 -4.21114,8.59587 -1.86866,5.03083 -2.54767,10.41307 -3.04832,15.72575 0.10427,4.65598 0.42975,9.30373 0.82262,13.94326 2.83189,1.26704 5.88216,1.85097 8.96521,1.99357 5.1051,0.49349 10.26429,0.72515 15.2587,1.95892 3.88758,0.43914 2.73534,-4.59508 3.96677,-6.89951 0.95468,-2.95745 2.26098,-5.79109 3.15224,-8.7687 0.52778,-4.79496 -1.28493,-9.45311 -1.31402,-14.23911 -0.12032,-3.24646 -0.85265,-6.46001 -2.4248,-9.31962 -1.83134,-4.23717 -3.31475,-8.65399 -5.52398,-12.70497 -2.01956,-2.71919 -4.77608,-4.76647 -7.01454,-7.29644 -0.62237,-0.37136 -1.48075,-1.97231 -2.16926,-0.80235 z"
       style="fill:#96c9fb;fill-opacity:1;fill-rule:evenodd;stroke:none;stroke-width:1px;stroke-linecap:butt;stroke-linejoin:miter;stroke-opacity:1" /></g><g
     id="HAO_0000343"
     class="bodypart"><path
       inkscape:connector-curvature="0"
       id="path4503"
       d="m 183.62092,411.38361 c 5.59319,3.51429 2.44893,9.37565 -2.07464,12.15701 -4.60661,1.9677 -6.45522,7.36399 -10.83932,8.974 -0.14591,4.71399 -5.22004,8.23114 -9.01045,4.56913 -3.8098,2.04635 -6.59656,7.34789 -11.65494,4.48288 -4.61678,-4.56781 -11.88883,-1.92928 -16.63188,-5.93407 -4.65459,-3.22219 -6.44186,-9.00018 -10.40661,-12.95249 -4.07439,-3.49174 -5.73293,-8.45896 -7.43332,-13.36904 -2.37719,-4.96076 -1.73216,-10.73052 0.26599,-15.70808 1.02056,-6.44026 9.33301,-7.38497 13.8692,-4.23859 3.54344,4.64947 5.8117,10.69573 10.49639,14.67187 2.63721,3.50666 3.67437,8.04165 6.73459,11.31967 3.1947,3.02617 7.70858,6.43351 8.33872,10.22232 2.48306,-0.87047 3.96438,-0.24327 5.46765,1.03193 2.68818,-3.78246 7.64294,-0.94987 9.5365,-5.66285 2.90491,-3.74149 6.70789,-6.88309 11.21928,-7.9126 0.70761,-0.55036 1.41523,-1.10073 2.12284,-1.65109 z"
       style="fill:#97c9fb;fill-opacity:1;fill-rule:evenodd;stroke:none;stroke-width:1px;stroke-linecap:butt;stroke-linejoin:miter;stroke-opacity:1" /></g><g
     id="HAO_0001860"
     style="fill:#97cafc;fill-opacity:0.99215686;stroke:none"
     class="bodypart"><path
       style="fill:#97cafc;fill-opacity:0.99215686;fill-rule:evenodd;stroke:none;stroke-width:1px;stroke-linecap:butt;stroke-linejoin:miter;stroke-opacity:1"
       d="m 558.04858,241.83123 c 4.54559,2.9451 10.31948,4.86845 13.83065,8.86913 3.06077,4.9281 -1.60251,6.92307 -5.85373,7.41578 -13.53397,4.26595 -27.55072,7.02634 -40.93955,11.60815 -3.6174,1.94747 -12.40253,5.94686 -13.63956,-0.40854 -2.32444,-3.39679 -0.69307,-8.29672 0.75815,-11.41732 6.10686,-4.10599 14.49671,-1.06395 20.3575,-5.94037 8.15534,-4.09252 17.19007,-6.25916 25.48654,-10.12683 z"
       id="path4571"
       inkscape:connector-curvature="0" /><path
       style="fill:#97cafc;fill-opacity:0.99215686;fill-rule:evenodd;stroke:none;stroke-width:1px;stroke-linecap:butt;stroke-linejoin:miter;stroke-opacity:1"
       d="m 656.11697,233.32995 c 2.32438,4.0642 4.52959,8.21319 7.89405,11.53746 1.74981,4.59324 -2.78164,7.57866 -6.96357,6.62971 -27.3321,1.43351 -54.6642,2.86701 -81.9963,4.30051 -4.3096,-1.85935 -4.29936,-7.01531 -8.00127,-9.22763 -3.41563,-2.65539 -9.16257,-4.00703 -1.46634,-4.16462 18.00642,-2.61042 36.06162,-4.69659 54.18017,-6.30816 12.08359,-1.28235 24.25095,-1.63733 36.35326,-2.76727 z"
       id="path4573"
       inkscape:connector-curvature="0" /><path
       style="fill:#97cafc;fill-opacity:0.99215686;fill-rule:evenodd;stroke:none;stroke-width:1px;stroke-linecap:butt;stroke-linejoin:miter;stroke-opacity:1"
       d="m 745.98769,243.0457 c -0.40703,5.75752 4.65987,11.00852 1.51808,16.69895 -10.66005,1.46453 -21.19503,-2.32622 -31.81339,-3.08598 -15.52739,-2.14012 -31.06353,-4.13787 -46.74758,-4.39059 -10.36326,1.79198 -1.64902,-6.83381 -7.56479,-10.8816 -2.49384,-2.59521 -6.48489,-8.80552 0.0852,-6.44567 28.17415,2.70163 56.34829,5.40326 84.52244,8.10489 z"
       id="path4575"
       inkscape:connector-curvature="0" /><path
       style="fill:#97cafc;fill-opacity:0.99215686;fill-rule:evenodd;stroke:none;stroke-width:1px;stroke-linecap:butt;stroke-linejoin:miter;stroke-opacity:1"
       d="m 808.83647,260.95912 c -0.12819,4.57952 -1.74061,8.55865 -4.55426,12.14469 -6.32674,4.62413 -18.98638,-4.59376 -27.93279,-4.85787 -9.0292,-3.67683 -18.73865,-4.80872 -27.93279,-7.89405 -0.21459,-5.13819 -0.0965,-10.57716 -2.73256,-15.18087 10.66764,1.58887 21.29213,3.35645 31.40547,7.24119 10.44767,3.32907 20.92895,6.64362 31.74693,8.54691 z"
       id="path4577"
       inkscape:connector-curvature="0" /><path
       style="fill:#97cafc;fill-opacity:0.99215686;fill-rule:evenodd;stroke:none;stroke-width:1px;stroke-linecap:butt;stroke-linejoin:miter;stroke-opacity:1"
       d="m 841.93075,284.03404 c -3.52526,1.67121 -6.61563,6.09463 -10.48239,2.58206 -8.65056,-3.79566 -17.30112,-7.59131 -25.95168,-11.38697 4.54681,-1.33411 3.07775,-8.24232 4.81385,-9.61708 10.33435,6.44975 21.11647,12.23401 31.62022,18.42199 z"
       id="path4579"
       inkscape:connector-curvature="0" /><path
       style="fill:#97cafc;fill-opacity:0.99215686;fill-rule:evenodd;stroke:none;stroke-width:1px;stroke-linecap:butt;stroke-linejoin:miter;stroke-opacity:1"
       d="m 851.03927,292.53532 c -4.55426,-1.21447 -9.10852,-2.42894 -13.66278,-3.64341 3.45096,-4.08105 7.42994,-0.68915 10.64727,1.66773 1.00517,0.65856 2.01034,1.31712 3.01551,1.97568 z"
       id="path4581"
       inkscape:connector-curvature="0" /></g><g
     id="HAO_0000170"
     class="bodypart"
     transform="matrix(0.99999666,0.00258644,-0.00258644,0.99999666,116.65539,-27.125457)"><g
       id="g3434"
       transform="translate(-115.243,25.800672)"><path
         inkscape:connector-curvature="0"
         id="path3418"
         d="m 397.84944,240.69937 c -0.8428,1.39249 -1.75821,4.55631 -1.27443,5.22122 3.57584,-2.87363 8.42097,-2.39476 12.7172,-2.57663 2.68589,-0.34245 6.62353,1.31714 7.40908,-2.35326 0.76291,-2.94384 -3.93713,-0.61019 -5.7072,-1.17651 -3.87396,0.18783 -7.7764,-0.17251 -11.63173,0.0143 -0.55099,0.20921 -0.98318,0.6222 -1.51292,0.87085 z"
         style="fill:#96c9fb;fill-opacity:1;fill-rule:evenodd;stroke:none;stroke-width:1px;stroke-linecap:butt;stroke-linejoin:miter;stroke-opacity:1" /><path
         inkscape:connector-curvature="0"
         id="path3420"
         d="m 426.47329,240.47884 c -1.01547,1.39072 -1.78739,3.36223 0.69815,2.03871 4.66802,-1.58918 9.69738,-0.92643 14.42513,-2.20704 2.71541,-0.47015 7.59355,-0.66544 8.99028,-1.10002 -2.69587,-0.51249 -5.41517,-0.30929 -8.09476,0.16961 -4.35547,0.2913 -8.60647,1.5729 -13.00651,1.17813 -1.00416,-0.0238 -2.00804,-0.059 -3.01229,-0.0794 z"
         style="fill:#96c9fb;fill-opacity:1;fill-rule:evenodd;stroke:#96c9fb;stroke-width:1px;stroke-linecap:butt;stroke-linejoin:miter;stroke-opacity:1" /></g></g><g
     id="HAO_0000560"
     style="fill:#cce6ff;fill-opacity:0.99215686"
     class="bodypart"><path
       inkscape:connector-curvature="0"
       id="path4618"
       d="m 465.41649,321.73144 c 0.006,-0.37692 0.14322,-0.80079 0.0685,-1.14896 -0.70998,-0.68714 -1.38397,-1.42967 -2.11644,-2.08221 -0.46107,-0.17733 -0.92215,-0.35467 -1.38322,-0.532 -0.0805,0.34568 -0.3062,0.71211 -0.29812,1.04514 0.38219,0.48517 0.65317,1.07993 1.10773,1.49379 0.51326,0.32685 0.97446,0.77681 1.52131,1.02421 0.36674,0.0667 0.73347,0.13335 1.10021,0.20003 z"
       style="fill:#cce6ff;fill-opacity:0.99215686;fill-rule:evenodd;stroke:none;stroke-width:1px;stroke-linecap:butt;stroke-linejoin:miter;stroke-opacity:1" /><path
       inkscape:connector-curvature="0"
       id="path4620"
       d="m 458.99695,322.6169 c -0.0369,-1.29129 -0.0738,-2.58257 -0.11068,-3.87386 -0.55341,-0.51652 -1.10682,-1.03303 -1.66023,-1.54955 -0.70098,0.11068 -1.40197,0.22137 -2.10295,0.33205 0.54805,1.64481 1.14923,3.26952 1.83339,4.86285 0.16939,0.23499 0.31945,0.75906 0.6032,0.74182 0.47909,-0.1711 0.95818,-0.34221 1.43727,-0.51331 z"
       style="fill:#cce6ff;fill-opacity:0.99215686;fill-rule:evenodd;stroke:none;stroke-width:1px;stroke-linecap:butt;stroke-linejoin:miter;stroke-opacity:1" /><path
       inkscape:connector-curvature="0"
       id="path4622"
       d="m 454.79105,325.6053 c -0.95495,-0.12471 -1.90857,-0.80877 -2.34304,-1.6167 -0.11203,-0.99606 -0.14628,-2.0069 -0.48981,-2.95893 -0.0804,-0.45149 -0.40755,-0.91383 -0.11973,-1.34915 0.058,-0.42128 0.34254,-0.62618 0.73342,-0.72956 0.33901,-0.2419 0.62256,0.23626 0.93456,0.34506 0.35932,0.2051 0.33008,0.72288 0.51861,1.06543 0.4633,1.21538 0.85096,2.47206 1.54076,3.58363 -0.11068,0.77477 -0.22137,1.54954 -0.33205,2.32431 -0.14757,-0.22136 -0.29515,-0.44273 -0.44272,-0.66409 z"
       style="fill:#cce6ff;fill-opacity:0.99215686;fill-rule:evenodd;stroke:none;stroke-width:1px;stroke-linecap:butt;stroke-linejoin:miter;stroke-opacity:1" /><path
       inkscape:connector-curvature="0"
       id="path4624"
       d="m 448.15014,323.05962 c 0,-0.40583 0,-0.81166 0,-1.21749 0.38389,-0.2438 0.68828,-0.2409 0.84143,0.23124 0.67602,1.06348 1.3178,2.15144 2.15523,3.09951 0.47951,0.51148 0.7572,1.15722 1.09857,1.7606 -0.0369,0.47962 -0.0738,0.95924 -0.11068,1.43886 -0.35666,0.24105 -0.67801,0.59839 -1.0556,0.77053 -0.49669,-0.0355 -0.99339,-0.071 -1.49008,-0.10643 -0.8882,-0.93012 -0.71275,-2.2724 -1.12072,-3.40831 -0.22936,-0.83153 -0.11017,-1.72669 -0.31815,-2.56851 z"
       style="fill:#cce6ff;fill-opacity:0.99215686;fill-rule:evenodd;stroke:none;stroke-width:1px;stroke-linecap:butt;stroke-linejoin:miter;stroke-opacity:1" /><path
       inkscape:connector-curvature="0"
       id="path4626"
       d="m 448.37151,333.13166 c -0.58422,0.78179 -1.0946,1.85362 -2.21323,1.8874 -0.71013,-0.29732 -2.07992,0.35105 -2.36901,-0.50392 -0.13246,-0.36938 -0.40567,-0.73462 -0.15581,-1.11524 0.26495,-0.87963 0.63477,-1.73023 0.88148,-2.61158 0.22889,-1.04472 0.002,-2.09315 -0.34934,-3.08007 0.0287,-0.42505 -0.12194,-0.90755 0.24253,-1.22499 0.16892,-0.43776 0.49139,-0.4748 0.89278,-0.30592 0.45554,-0.0444 0.53063,0.35884 0.65776,0.70085 0.2277,0.61748 0.46755,1.22826 0.91141,1.72634 0.42841,0.62998 0.94343,1.21538 1.31776,1.87319 0.1328,0.56027 0.52658,1.09843 0.33252,1.68641 -0.0496,0.32251 -0.0992,0.64502 -0.14885,0.96753 z"
       style="fill:#cce6ff;fill-opacity:0.99215686;fill-rule:evenodd;stroke:none;stroke-width:1px;stroke-linecap:butt;stroke-linejoin:miter;stroke-opacity:1" /></g><g
     id="HAO_0000587"
     class="bodypart"><path
       inkscape:connector-curvature="0"
       id="path4640"
       d="m 516.527,302.35146 c 3.94234,-0.48864 7.63855,0.57577 10.45312,3.42872 2.99579,2.60411 6.18158,5.12083 8.66986,8.2124 2.46174,3.51255 4.76964,7.1297 7.03682,10.76991 0.3157,4.87681 0.82221,9.90357 3.52278,14.11523 1.76966,3.84567 5.89451,8.84133 2.55968,12.91816 -2.65683,3.5062 -6.08888,5.04046 -9.73075,7.12327 -3.78659,3.57029 -8.47972,-0.10727 -12.75893,-0.32957 -4.85822,-0.84328 -9.85665,-2.60571 -12.89887,-6.72996 -3.7517,-3.79242 -8.46011,-6.53983 -11.88797,-10.66878 -2.90142,-3.28068 -5.4818,-7.23222 -6.59079,-11.46789 -0.71158,-3.91203 -1.23712,-7.90733 -0.8647,-11.88674 1.72346,-4.55126 7.56471,-3.72439 10.81636,-6.52602 3.569,-2.89296 8.80834,-3.83022 11.20726,-7.97465 l 0.26965,-0.52651 0.19648,-0.45757 z"
       style="fill:#97cafc;fill-opacity:0.99215686;fill-rule:evenodd;stroke:none;stroke-width:1px;stroke-linecap:butt;stroke-linejoin:miter;stroke-opacity:1" /><path
       inkscape:connector-curvature="0"
       id="path4642"
       d="m 532.78652,384.14599 c -0.36485,-2.37201 -2.00756,-3.37927 -4.2246,-2.70538 -1.50209,0.12346 -3.00419,0.24692 -4.50628,0.37038 -2.43477,2.76919 -4.02784,9.02675 -8.87965,6.18356 -2.32021,-2.56236 -3.90737,-5.84321 -6.12237,-8.58622 -2.24136,-3.53422 -5.30148,-6.8172 -5.97578,-11.07605 -1.0231,-3.56052 -1.79384,-7.30616 -3.52707,-10.57237 -3.03979,-4.03038 -5.64721,-8.52086 -6.43762,-13.56306 -0.81923,-3.2117 -2.65976,-8.59738 1.58516,-10.1086 3.40804,0.0976 3.93342,5.71056 6.88646,7.47397 4.23448,5.20808 9.39043,9.59495 14.65935,13.73184 3.51413,3.3182 8.35333,3.78936 12.89724,4.56957 5.69009,-0.73428 4.44658,5.87172 5.10468,9.72971 -0.86946,4.39537 1.4568,8.97365 -0.24048,13.23128 -0.27394,0.54273 -0.70596,0.99807 -1.21904,1.32137 z"
       style="fill:#97c9fc;fill-opacity:1;fill-rule:evenodd;stroke:none;stroke-width:1px;stroke-linecap:butt;stroke-linejoin:miter;stroke-opacity:1" /></g><g
     id="HAO_0000603"
     class="bodypart"><path
       inkscape:connector-curvature="0"
       id="path4652"
       d="m 475.91598,249.81735 c -1.74239,0.43687 -3.66696,2.03186 -5.39333,1.15653 -1.79953,-0.78148 -3.48599,-1.9133 -5.46602,-2.16503 -2.35427,-0.51157 -4.71846,-1.08791 -7.14609,-0.98797 -2.06508,-0.10095 -4.10984,0.25764 -6.15979,0.38358 0.32872,-0.58066 2.57448,-1.11707 3.63836,-1.68181 1.39,-0.64013 2.55068,-1.66651 3.80325,-2.52943 -0.0275,-0.43993 -0.29571,-1.22864 -0.17548,-1.45439 0.97372,0.56799 1.94743,1.13599 2.92115,1.70399 1.81232,0.0778 3.63231,-0.12903 5.43429,-0.11421 2.98613,1.67497 5.83092,3.60162 8.54366,5.68874 z"
       style="fill:#96c9fb;fill-opacity:1;fill-rule:evenodd;stroke:none;stroke-width:1px;stroke-linecap:butt;stroke-linejoin:miter;stroke-opacity:1" /></g><g
     id="HAO_0000609"
     class="bodypart"><path
       sodipodi:nodetypes="ccccccccccccccccccccccc"
       inkscape:connector-curvature="0"
       id="path4659"
       d="m 421.82241,252.53783 c 5.46826,-0.77991 10.98424,-1.66067 16.5064,-0.87407 4.88251,0.12639 9.8036,0.0636 14.66387,-0.19264 4.47966,-0.59682 9.56513,-1.99791 13.60882,0.71391 3.57553,3.78896 1.42038,9.03071 5.88175,12.16794 3.88268,1.71321 9.62241,1.58041 13.58056,3.20219 5.32047,0.005 8.12887,0.0647 12.3071,1.87607 3.54923,3.04248 1.44177,6.11353 3.89475,9.79516 0.93888,4.70933 7.2483,1.49717 7.24107,6.76331 2.85852,3.19434 3.90139,7.71765 4.54894,11.83025 0.67475,1.91988 -3.02498,8.55768 1.17841,5.81646 3.24935,-3.22663 3.21509,-8.58439 0.35264,-12.05053 -2.01384,-3.54356 -2.46213,-7.84496 -4.98339,-11.17802 -4.5328,-1.21754 -7.72381,-4.70615 -8.46176,-9.55523 -1.39828,-4.04913 -6.07648,-6.001 -10.10306,-5.7346 -4.76949,-0.58823 -10.01336,-0.5474 -14.21011,-3.13869 -2.6872,-2.40435 -2.39798,-6.42173 -5.0431,-8.93576 -3.57068,-4.54812 -9.91092,-4.38255 -15.14766,-4.94069 -3.87839,-0.45347 -7.13455,2.53219 -11.09021,1.65828 -7.05905,0.22943 -14.07511,-0.92191 -21.13156,-0.75934 -4.0085,2.2631 -8.51503,1.69807 -12.55737,0.10099 -4.86049,0.41165 -0.80279,3.87833 1.91762,3.97148 2.37422,0.44859 5.68014,2.60473 7.04629,-0.53647 z"
       style="fill:#96c9fb;fill-opacity:1;fill-rule:evenodd;stroke:none;stroke-width:1px;stroke-linecap:butt;stroke-linejoin:miter;stroke-opacity:1" /></g><g
     id="HAO_0000646"
     class="bodypart"><path
       inkscape:connector-curvature="0"
       id="path4679"
       d="m 370.58213,265.45935 c 4.07942,0.32001 1.17652,7.296 -1.00873,5.71109 1.70502,-1.95798 6.6e-4,-3.97174 1.00873,-5.71109 z"
       style="fill:#96c9fb;fill-opacity:1;fill-rule:evenodd;stroke:none;stroke-width:1px;stroke-linecap:butt;stroke-linejoin:miter;stroke-opacity:1" /><path
       inkscape:connector-curvature="0"
       id="path4681"
       d="m 365.92281,277.02444 c 2.88577,1.16516 0.48922,-6.04508 3.77064,-3.03535 1.59054,2.06025 -2.04766,6.16036 -3.77064,3.03535 z"
       style="fill:#96c9fb;fill-opacity:1;fill-rule:evenodd;stroke:none;stroke-width:1px;stroke-linecap:butt;stroke-linejoin:miter;stroke-opacity:1" /><path
       inkscape:connector-curvature="0"
       id="path4683"
       d="m 362.51153,282.51578 c 1.85921,-0.95843 1.22105,-2.94704 2.04976,-4.20202 3.63917,0.2891 1.21603,5.02717 -1.36445,4.43046 l -0.34266,-0.1142 -0.34265,-0.11424 0,0 z"
       style="fill:#96c9fb;fill-opacity:1;fill-rule:evenodd;stroke:none;stroke-width:1px;stroke-linecap:butt;stroke-linejoin:miter;stroke-opacity:1" /><path
       inkscape:connector-curvature="0"
       id="path4685"
       d="m 359.51625,288.33992 c 1.24525,-0.76224 1.4775,-5.60094 2.64492,-2.60315 1.02759,1.5061 1.84827,5.30373 -2.64492,2.60315 z"
       style="fill:#96c9fb;fill-opacity:1;fill-rule:evenodd;stroke:none;stroke-width:1px;stroke-linecap:butt;stroke-linejoin:miter;stroke-opacity:1" /><path
       inkscape:connector-curvature="0"
       id="path4689"
       d="m 358.01861,295.2457 c -1.24906,-1.7039 2.05083,-6.86273 2.19469,-2.74612 0.55977,1.66405 -0.0492,3.5681 -2.19469,2.74612 z"
       style="fill:#96c9fb;fill-opacity:1;fill-rule:evenodd;stroke:none;stroke-width:1px;stroke-linecap:butt;stroke-linejoin:miter;stroke-opacity:1" /><path
       inkscape:connector-curvature="0"
       id="path4691"
       d="m 357.6858,302.40108 c -1.22264,-1.67618 -0.7828,-7.65878 1.7665,-4.17984 1.62265,1.24071 1.77231,3.49701 -0.50903,3.79788 -0.29046,0.40034 -0.87447,0.15771 -1.25747,0.38196 z"
       style="fill:#96c9fb;fill-opacity:1;fill-rule:evenodd;stroke:none;stroke-width:1px;stroke-linecap:butt;stroke-linejoin:miter;stroke-opacity:1" /><path
       inkscape:connector-curvature="0"
       id="path4693"
       d="m 357.18659,307.64281 c -2.57946,-3.91972 3.93618,-4.01721 4.5713,-0.74576 -0.12125,1.1573 -3.71896,2.25703 -4.5713,0.74576 z"
       style="fill:#96c9fb;fill-opacity:1;fill-rule:evenodd;stroke:none;stroke-width:1px;stroke-linecap:butt;stroke-linejoin:miter;stroke-opacity:1" /><path
       inkscape:connector-curvature="0"
       id="path4695"
       d="m 357.26979,316.37903 c -1.8212,-1.8291 -0.78861,-5.64786 2.16254,-5.09489 2.16201,-1.39598 4.49521,0.7617 2.45142,2.7665 0.26615,2.85172 -2.48305,2.68108 -4.61396,2.32839 z"
       style="fill:#96c9fb;fill-opacity:1;fill-rule:evenodd;stroke:none;stroke-width:1px;stroke-linecap:butt;stroke-linejoin:miter;stroke-opacity:1" /></g><g
     id="HAO_0001122"
     class="bodypart"><path
       inkscape:connector-curvature="0"
       id="path4771"
       d="m 347.49775,329.52954 c 4.01416,-0.38393 7.42331,-2.30633 10.71299,-4.48728 2.536,-1.88111 5.73144,-0.97412 8.64986,-1.18962 2.90139,0.15112 5.89991,-0.32569 8.74027,0.29151 1.83124,0.53412 3.66249,1.06823 5.49373,1.60234 3.18242,3.44167 3.40654,7.96671 4.00053,12.37211 1.56357,6.86342 2.27549,13.88783 2.17983,20.92402 0.23168,1.90993 -0.56436,3.69255 -0.95618,5.5249 -4.10333,1.44007 -8.299,2.83059 -12.63155,3.2727 -2.90742,-0.25934 -6.09763,-0.21916 -8.36725,-2.31606 -2.50721,-1.09713 -5.00059,-2.84621 -7.86657,-2.37513 -2.48269,0.18157 -6.03097,-0.88612 -5.9636,-3.90207 -0.72377,-4.5938 0.11797,-9.30789 -0.70161,-13.86929 -1.74321,-4.5113 -2.76444,-9.28963 -2.76378,-14.13848 -0.0439,-0.59786 -0.17578,-1.2108 -0.52667,-1.70965 z"
       style="fill:#97cafc;fill-opacity:0.99215686;fill-rule:evenodd;stroke:none;stroke-width:1px;stroke-linecap:butt;stroke-linejoin:miter;stroke-opacity:1" /><path
       inkscape:connector-curvature="0"
       id="path4775"
       d="m 361.81919,387.6046 c 2.0159,0.33524 4.17798,1.39123 6.1861,0.75906 1.68075,-0.80673 3.57103,-0.97791 5.40454,-0.91945 2.05326,1.54928 3.93803,0.0425 5.71818,-1.16287 1.74953,-1.33139 4.79026,-0.40969 5.75273,-2.79809 0.2607,-1.70095 0.57722,-3.41284 0.95733,-5.10699 0.69568,-3.52267 0.34746,-7.15477 -0.37975,-10.64446 -0.22685,-1.14409 0.0996,-3.23112 -1.68305,-1.92157 -3.62811,1.30414 -7.47702,1.74241 -11.22867,2.55636 -1.43648,0.82198 -4.34833,-0.6365 -4.6398,1.38925 -0.0143,2.5249 -0.87313,4.99133 -1.05776,7.51678 -0.38839,2.37593 -1.37855,4.68018 -2.70413,6.67404 -0.8512,1.16736 -1.71807,2.33992 -2.32572,3.65794 z"
       style="fill:#97cafb;fill-opacity:1;fill-rule:evenodd;stroke:none;stroke-width:1px;stroke-linecap:butt;stroke-linejoin:miter;stroke-opacity:1" /><path
       inkscape:connector-curvature="0"
       id="path4777"
       d="m 347.52981,363.72942 c -0.17862,1.44878 -0.35724,2.89757 -0.53586,4.34635 1.38396,2.50394 2.06435,5.34066 2.82115,8.04856 1.55716,-0.76029 2.0688,-2.88858 2.89577,-4.36264 1.18997,-2.17097 2.68833,-4.15446 4.25112,-6.06783 -1.72912,-0.96398 -3.96119,-1.3263 -5.01119,-3.20771 -1.24963,-2.00213 -2.16703,-4.19112 -2.83682,-6.44707 -0.37493,-1.71432 -2.48908,-1.83532 -3.74324,-1.31184 -0.46467,1.97944 -0.34424,4.10861 0.54236,5.97556 0.46293,1.04782 1.03116,2.04363 1.61671,3.02662 z"
       style="fill:#97cafc;fill-opacity:1;fill-rule:evenodd;stroke:none;stroke-width:1px;stroke-linecap:butt;stroke-linejoin:miter;stroke-opacity:1" /></g><g
     id="HAO_0000862"
     class="bodypart"><path
       inkscape:connector-curvature="0"
       id="path4788"
       d="m 305.06315,302.9751 c 4.35539,1.95942 8.6529,4.0452 13.01945,5.98009 4.20221,-0.0255 7.95134,1.23066 11.27274,3.75883 4.33704,1.88186 8.59083,3.972 12.77183,6.16857 2.6344,1.81469 7.64731,1.1137 8.49456,4.45582 1.93319,3.13645 3.46681,6.3458 1.8414,10.04694 -0.92286,5.41744 -2.42364,10.83158 -1.58057,16.36346 -0.38597,2.68246 2.70651,10.80291 -2.57371,8.74113 -2.51356,-1.83594 -5.10966,-3.55899 -7.65657,-5.34932 -3.11348,0.34608 -6.22898,-0.67669 -8.37864,-2.98034 -2.99086,-2.45293 -5.83506,-5.41849 -9.92734,-5.79752 -3.87112,-1.03227 -3.86776,-5.89965 -4.64111,-9.19131 -2.09028,-9.83042 -4.32591,-19.89345 -9.39953,-28.67673 -0.86456,-1.34784 -1.9143,-2.60644 -3.24251,-3.51962 z"
       style="fill:#97c9fb;fill-opacity:1;fill-rule:evenodd;stroke:none;stroke-width:1px;stroke-linecap:butt;stroke-linejoin:miter;stroke-opacity:1" /></g><g
     id="HAO_0001249"
     class="bodypart"><path
       inkscape:connector-curvature="0"
       id="path4795"
       d="m 462.27389,247.55181 c 9.62474,1.02171 19.31289,1.56799 28.79275,3.6453 6.43162,1.11806 12.65861,3.13485 19.04862,4.4567 5.93501,1.79277 -4.50391,5.58914 -3.93195,6.5296 4.4675,0.0171 4.25413,3.94166 3.99603,7.23198 3.23964,3.46462 4.54822,7.98215 5.98534,12.36936 1.63077,3.02716 3.07145,6.18388 3.27889,9.68304 0.87842,3.42799 3.52567,10.2684 -1.84811,10.87971 -3.32361,-0.0546 -1.96852,-3.73004 0.26631,-4.24064 0.57074,-4.56912 -4.33111,-7.94023 -4.6282,-12.55568 0.58899,-5.30475 -4.93563,-5.35491 -8.20158,-6.85347 -2.55866,-3.62371 -1.48373,-9.02852 -5.36261,-11.87385 -1.65211,-1.13568 -3.61228,-1.76726 -5.41076,-2.66674 -4.07086,1.26565 -8.62017,0.71627 -12.60038,-0.60617 -4.93452,-0.95507 -4.54626,-6.16933 -7.23913,-9.14606 -2.94825,-3.09141 -6.34386,-5.38999 -10.57626,-6.16104 l -0.79014,-0.33677 -0.77881,-0.35527 -1e-5,0 z"
       style="fill:#97cafc;fill-opacity:0.99215686;fill-rule:evenodd;stroke:none;stroke-width:1px;stroke-linecap:butt;stroke-linejoin:miter;stroke-opacity:1" /></g><g
     id="HAO_0000908"
     class="bodypart"><path
       sodipodi:nodetypes="cccccccccccccccc"
       inkscape:connector-curvature="0"
       id="path4804"
       d="m 219.23905,429.61632 c -2.0243,-2.51313 1.03131,-5.21009 3.00518,-6.56857 4.35982,-3.26114 8.60608,-6.78637 13.38859,-9.40294 5.81382,-2.60261 11.86443,-4.67279 18.15207,-5.76738 7.57624,-2.16488 14.89278,-5.18284 22.25167,-7.95963 3.84239,-2.72635 6.37449,-6.84551 9.17869,-10.5545 0.47152,-1.78303 -0.0842,-2.42439 -0.65079,-3.78423 5.20681,1.55194 5.16616,1.5068 8.65092,-0.493 -0.27337,4.71047 -5.6183,9.64385 -7.93511,13.38597 -2.12651,1.87356 -3.39075,4.48544 -5.45042,6.33263 1.37073,4.02083 -3.71638,4.15259 -5.65731,6.46445 -4.93564,4.44953 -9.25675,9.77672 -15.31986,12.76805 -4.18136,2.08796 -8.27077,4.45023 -12.84364,5.58084 -4.07521,1.66917 -8.41668,2.55732 -12.31814,4.6372 -2.68023,1.16957 -7.7706,2.44126 -8.52992,-1.45869 -1.22816,-1.76258 -3.63985,-3.81457 -5.92193,-3.1802 z"
       style="fill:#97c9fb;fill-opacity:1;fill-rule:evenodd;stroke:none;stroke-width:1px;stroke-linecap:butt;stroke-linejoin:miter;stroke-opacity:1" /><path
       inkscape:connector-curvature="0"
       id="path4808"
       d="m 203.09479,400.23377 c 1.77097,3.12489 3.1898,6.96042 6.73455,8.48089 2.09731,0.51802 4.48985,-0.0269 6.70151,0.23937 4.20675,0.30779 8.34588,1.20473 12.55148,1.57432 3.66006,0.43342 7.38319,1.02613 11.06159,0.59204 4.05071,-0.91888 8.00146,-2.19774 11.88186,-3.66242 5.55973,-1.35341 11.26777,-2.4878 16.36127,-5.21739 2.70366,-1.76887 6.52825,-1.48087 8.63709,-4.04982 -1.83665,-1.33984 -5.6866,0.95857 -8.25237,1.05742 -4.3549,-0.0134 -8.71929,-0.34458 -12.9719,-1.34723 -5.54716,-1.24579 -11.12869,-2.29235 -16.69453,-3.43686 -6.48367,-1.15623 -13.12849,-1.21182 -19.67227,-0.83737 -4.47545,1.13197 -8.88543,2.67938 -13.33033,3.80659 -1.00264,0.93346 -2.00537,1.86714 -3.00795,2.80046 z"
       style="fill:#97c9fb;fill-opacity:1;fill-rule:evenodd;stroke:none;stroke-width:1px;stroke-linecap:butt;stroke-linejoin:miter;stroke-opacity:1" /></g><g
     id="HAO_0000944"
     class="bodypart"
     style="stroke:none"><path
       inkscape:connector-curvature="0"
       id="path4827"
       d="m 416.7275,260.45801 c 1.4335,-0.29553 3.01073,0.0494 3.93803,1.24551 1.54816,1.48293 2.96178,3.56978 2.61639,5.81491 -0.12659,1.01063 -0.94178,1.7225 -1.83503,2.09314 -1.89831,1.19278 -2.88855,3.37413 -4.78046,4.57485 -1.57135,1.80733 -4.52649,1.78431 -5.73167,3.99427 -1.28227,1.66715 -3.58972,1.63605 -5.49184,1.57559 -1.27617,0.13617 -2.46165,-0.52122 -3.21716,-1.50539 -1.07247,-0.96006 -0.55613,-2.51431 -0.64198,-3.7665 0.05,-1.71051 0.16575,-3.67117 -1.08338,-5.02576 -0.84238,-1.61133 -0.94013,-3.47462 -1.55587,-5.16567 -0.10282,-1.34609 1.62047,-1.27103 2.55543,-1.30552 1.82855,-0.12995 3.53385,-0.92021 5.30915,-1.33262 2.65051,-0.7469 5.43821,-0.28267 8.1288,-0.7642 0.60942,-0.0903 1.19773,-0.26948 1.78959,-0.43261 z"
       style="fill:#97cafc;fill-opacity:0.99215686;fill-rule:evenodd;stroke:none;stroke-width:1px;stroke-linecap:butt;stroke-linejoin:miter;stroke-opacity:1" /></g><g
     id="HAO_0000993"><path
       inkscape:connector-curvature="0"
       id="path4840"
       d="m 361.48794,242.28516 c 0.53933,0.76406 1.07867,1.52811 1.618,2.29217 3.17749,0.15618 6.78492,0.67849 9.45609,-1.48169 2.38678,-1.81749 4.82454,-3.56896 7.45457,-5.02171 2.84763,-1.94059 5.40196,-4.28944 8.28115,-6.19351 1.77563,-0.71394 0.54027,-3.26207 -1.02144,-3.1434 -2.69093,-0.0501 -5.48714,-0.2307 -8.05891,0.77117 -2.00429,0.70417 -4.02368,1.41928 -5.7627,2.66011 -2.12641,1.09699 -4.28945,2.21012 -6.11887,3.7661 -1.05761,1.27129 -2.05151,2.62937 -3.52904,3.45021 -1.13632,0.62986 -1.57827,1.90036 -2.31885,2.90055 z"
       style="fill:#96c9fb;fill-opacity:1;fill-rule:evenodd;stroke:none;stroke-width:1px;stroke-linecap:butt;stroke-linejoin:miter;stroke-opacity:1" /></g></svg>